<?xml version="1.0" encoding="utf-8"?>
<!-- Generator: Adobe Illustrator 23.0.6, SVG Export Plug-In . SVG Version: 6.00 Build 0)  -->
<svg version="1.1" id="Layer_1" xmlns="http://www.w3.org/2000/svg" xmlns:xlink="http://www.w3.org/1999/xlink" x="0px" y="0px"
	 viewBox="0 0 1920 850.4" style="enable-background:new 0 0 1920 850.4;" xml:space="preserve">
<style type="text/css">
	.st0{fill:#FFFFFF;}
	.st1{fill-rule:evenodd;clip-rule:evenodd;fill:#FFFFFF;}
</style>
<g>
	<g>
		<g>
			<path id="University_of_Toronto_Mark_Stacked_1_" class="st0" d="M1823.6,438c57.4,0,92.9,45.8,92.9,92.5
				c0,51.6-45,94.4-95.8,94.4c-52.5,0-90.3-42.6-90.3-94.4C1730.7,481.2,1774.3,438,1823.6,438 M1833.1,613.2
				c33.7,0,54.7-33.3,54.7-65.2c0-50.8-29.2-98.3-72.8-98.3c-34.6,0-55.7,30.6-55.7,66C1759.5,562.4,1786.4,613.2,1833.1,613.2z
				 M1646.3,442.1h-38.5c-16.6,0-29.2,0-39.5-0.4c-9.4-0.4-11.7-2.7-13-4.5h-4.9c-0.8,2.3-13,34.6-13.5,36.4l5.8,3.7
				c5.8-15.8,12.6-23.3,44.4-23.3c2.7,0,13,0,25.7,1.4c1.8,22.8,2.3,45.3,2.3,68.3c0,14.4-0.4,68.3-2.3,79.8
				c-0.8,5.4-3.7,7.9-18.5,10.7c-6.2,0.8-10.3,1.3-13.8,1.8l1.3,7.2c4.8-0.4,10.6-0.7,17.8-1.1c7.2-0.4,15.9-0.7,28.9-0.7
				c4.9,0,13-0.3,20.7,0.1c7.6,0.4,14.4,0.4,23.8,0.8l0.8-7.5c-1.8,0-4.4-0.4-8.6-1c-5.1-0.7-13-2.3-16.1-5.4
				c-5.8-6.8-5.8-55.1-5.8-68.1c0-11.3,1.8-67.8,1.8-80.8c0-5.4,1.8-5.4,17.9-5.4l0.6,0.1c7.2-0.3,9.2-0.1,11.8-0.1
				c31.9,0,32.9,7.6,38.6,23.3l5.8-3.7c-0.4-1.8-6.8-34.1-7.6-36.4h-4.9c-1.4,1.8-3.5,4.1-13,4.5c-12.3,0.6-26.8,0.4-41.5,0.4
				L1646.3,442.1L1646.3,442.1L1646.3,442.1z M1350.4,441.7c-7.2,0.4-12.6,0.4-21.6,0.4c-4.5,0-9,0-13.4-0.4
				c-4.5-0.4-5.2-0.4-9.5-0.8v7.6c26.1,4.9,28.4,9,27.5,61.1l-0.1,31.9c0,12.1-0.7,48.1-2.3,58.4c-1.3,11.7-6.2,12.6-13,14
				c-3.7,0.8-7.6,1.8-10.3,2.3v6.8c6.8,0,13.4-0.4,20.2-0.8c6.8-0.6,15.8-1,22.6-1c6.8,0,14,0.4,20.3,1c5.8,0,9.9,0.4,12.6,0.8v-7.6
				c-35.5-6.3-35.5-11.3-35-41.3v-75.9l0.4-14.4c-0.1-0.1,0,0.3,132.2,140.1h9.2c-0.8-14.8-0.8-53-0.8-69.7
				c0-23.7-0.1-85.2,0.8-92.8c1.6-11.7,17.1-12.7,25.7-12.7v-6.8c-19.3,0-29.9,0.4-38.4-0.4c-8-0.8-14-1.3-18.9-1.3
				c-4.1,0-8.6-0.4-11.1,0l-1.4,6.8c30,1.8,29.3,4.5,29.3,72.2c0,8-0.3,47.7-0.3,55.3L1350.4,441.7z M1187.8,438
				c57.4,0,92.9,45.8,92.9,92.5c0,51.6-44.9,94.4-95.6,94.4c-52.6,0-90.3-42.6-90.3-94.4C1094.8,481.2,1138.4,438,1187.8,438z
				 M1197.2,613.2c33.7,0,54.7-33.3,54.7-65.2c0-50.8-29.2-98.3-72.8-98.3c-34.6,0-55.7,30.6-55.7,66
				C1123.5,562.4,1150.6,613.2,1197.2,613.2z M902.6,440.8c5.8,0.4,11.3,0.8,17.1,0.8c5.4,0.4,11.1,0.4,16.6,0.4
				c4.1,0,14.4-0.8,24.7-1.8c10.3-0.8,18.1-0.8,24.3-0.8c38.2,0,62.5,20.6,62.5,48.5c0,25.1-23,40.5-40.9,44.9
				c37.2,53.9,44,62.1,58.4,75.5c1.7,1.8,13,12.1,26.9,13l-0.4,6.8c-31,0-46.3-12.1-54.4-18.5c-27.4-21.6-54.3-64.2-59.2-73.2
				c-7.6,0-10.9,0-23.8-1v26.1c0,11.7-0.4,37.8,3.1,44.9c2.3,4.1,15.7,8,24.7,10.7l0.4,6.8c-10.9-1.8-27.9-3.1-39.5-3.1
				c-6.3,0-34.1,1.8-40.1,2.3l-1.3-5.4c2.7-0.4,18.9-4.1,22.8-11.7c3.1-6.8,2.7-44.4,2.7-56.6v-43.2c0-55.7-2.7-56.6-25.1-58
				L902.6,440.8z M954.6,525.2c5.4,0.8,14,0.8,19.3,0.8c6.6,0,44.4,0,44.4-36c0-16.6-12.1-40.9-44-40.9c-18.9,0-18.9,2.3-19.3,32.7
				L954.6,525.2z M777.8,438c57.4,0,92.9,45.8,92.9,92.5c0,51.6-45,94.4-95.6,94.4c-52.6,0-90.3-42.6-90.3-94.4
				C684.8,481.2,728.3,438,777.8,438z M787.1,613.2c33.7,0,54.7-33.3,54.7-65.2c0-50.8-29.2-98.3-72.8-98.3
				c-34.6,0-55.7,30.6-55.7,66C713.5,562.4,740.4,613.2,787.1,613.2z M596.1,442.1h-38.5c-16.6,0-29.2,0-39.5-0.4
				c-9.5-0.4-11.7-2.7-13-4.5h-4.9c-0.8,2.3-13,34.6-13.4,36.4l5.8,3.7c5.9-15.8,12.6-23.3,44.4-23.3c2.7,0,13,0,25.5,1.4
				c1.8,22.8,2.3,45.3,2.3,68.3c0,14.4-0.4,68.3-2.3,79.8c-0.8,5.4-3.5,7.9-18.3,10.7c-6.2,0.8-10.3,1.3-14,1.8l1.3,7.2
				c4.8-0.4,10.6-0.7,17.8-1.1c7.2-0.4,15.9-0.7,29.1-0.7c4.9,0,13-0.3,20.6,0.1c7.6,0.4,14.4,0.4,23.8,0.8l1-7.5
				c-1.8,0-4.5-0.4-8.6-1c-4.9-0.7-13-2.3-16.2-5.4c-5.8-6.8-5.8-55.1-5.8-68.1c0-11.3,1.8-67.8,1.8-80.8c0-5.4,1.8-5.4,17.9-5.4
				l0.6,0.1c7.2-0.3,9.3-0.1,12-0.1c31.9,0,32.9,7.6,38.6,23.3l5.8-3.7c-0.4-1.8-6.8-34.1-7.6-36.4h-4.9c-1.3,1.8-3.5,4.1-13,4.5
				c-12.3,0.6-26.8,0.4-41.5,0.4L596.1,442.1L596.1,442.1L596.1,442.1z M1756.5,283.7c-11.6,1.1-14.4,1.1-27.2,1.1l-13.7-0.3
				l-14.1-0.4l-4.7,0.3l-3.7,0.4v0.6v2.8h0.7c3.5,0.1,6.9,0.6,8.3,2.7c2.1,3.1,2.3,6.3,2.3,34.7c0,13.3-1.1,28.4-1.6,30.6
				c-0.7,3.1-5.1,4.2-8.3,4.8l-0.6,0.1l-0.3,4.2h0.8c7.9-0.6,16.6-0.8,18.9-0.8l6.9,0.1l13,0.6v-0.7v-3.9h-1
				c-9.2-0.8-12.3-2.5-13.3-3.7c-1-1.1-1.3-5.9-1.3-11c0-1.4,0-3,0-4.4c0,0,0.3-12,0.4-14.8c1,0,6.6-0.3,6.6-0.3
				c7.2,0,16.2,1.7,18.5,2.7c1.3,0.4,2.4,3,2.8,6.5v0.6h4.1v-0.6c0.7-8.3,0.6-16.5,0.4-22.7v-0.7h-4.2l-0.1,0.6
				c-1,5.9-1.4,8.3-17.1,8.3c-4.7,0-6.2-0.1-10.7-0.7c0,0-0.1,0-0.4,0c-0.1-1.4-0.1-3-0.1-4.7c0-1.8,0-3.7,0.1-5.8
				c0,0,0.3-16.6,0.3-19.2c4.5-0.6,8.5-0.7,9.6-0.7c8.7,0,16.4,1.6,19.5,3.9c2.4,2,3.5,5.1,4.1,7.9l0.1,0.6l4.5-0.3v-0.6
				c-0.1-1.3,0.1-5.6,0.4-9.6l0.4-8.5L1756.5,283.7z M1634.6,283.1c26.4,0,42.3,20.9,42.3,41.2c0,22.7-19.9,42-43.4,42
				c-23,0-41-18.5-41-42C1592.3,302.3,1612.2,283.1,1634.6,283.1z M1638.9,359.9c14.7,0,23.8-14.5,23.8-27.9
				c0-20.9-12-42.5-31.9-42.5c-15.8,0-24.3,14.2-24.3,28.2C1606.6,338.4,1618.7,359.9,1638.9,359.9z M1484.6,284.7v3.9h0.8
				c3.9,0.1,9.6,0.4,9.6,3.7c0,1-1.7,5.6-16.9,27.6c-6.5-7.9-21-26.4-21-28.8c0-0.8,0-2,9.2-2.1h0.7v-4.7l-7.6,0.1l-14.7,0.3
				l-15.9-0.3v0.7v3.7h0.7c3.9,0,6.3,0.6,8.3,1.8c4.9,3.4,22.1,25.4,22.7,26.4c0,0,6.9,8.9,7.6,9.7c0.4,5.6,0.8,12,0.8,19.9
				c0,12,0,14.5-11.1,14.8h-0.6l-0.3,3.9h0.7c1.7,0.1,6.9-0.3,11.8-0.7l8.6-0.6l6.5,0.3h1.3l8.7,0.4V364v-3.4h-0.6
				c-11-1-11-2.4-11.3-4.5c0,0.1,0-0.8,0-0.8c-0.3-4.9-0.4-10.4-0.4-16.5c0-4.5,0.1-9.3,0.3-14.4c0.3-0.3,15.8-24.1,15.8-24.1
				c5.1-7.6,7.8-11.8,18.5-12.1h0.7v-4.7h-0.6c-1.4-0.1-5.8,0.1-9.6,0.3l-5.2,0.3l-6.1-0.4l-4.2-0.3l-6.6,0.4h-0.7L1484.6,284.7
				L1484.6,284.7z M1413.5,282.4h-2.5l-0.1,0.3c-0.4,0.6-1.1,1.6-5.4,1.7l-16.1,0.1h-22.6l-17.6-0.1c-4.2-0.1-4.9-1.1-5.4-1.7
				l-0.1-0.3h-3l-0.1,0.4c-0.3,0.8-5.8,15.1-6.1,16.1l-0.1,0.4l3.7,2.3l0.3-0.7c2.5-6.6,5.2-9.7,19.2-9.7c4.5,0,8.3,0.3,10.9,0.6
				c0.8,10.9,1,21.3,1,29.3c0,7.6-0.3,30-1,35c-0.3,1.7-0.7,2.8-7.8,4.1l-4.9,0.7l-2,0.3l0.8,4.5l6.6-0.6l1.8-0.1l13-0.3h2.1
				l7.1,0.1l5.5,0.1l5.8,0.3l0.1-0.6l0.4-3.9l-3.7-0.4l-0.8-0.1c-3.4-0.4-5.9-1.3-6.9-2.1c-0.8-1-2.4-6.2-2.4-29.5l0.4-16.5
				l0.4-18.9c0-1.6,0-1.7,7.3-1.7h0.3h4.4h1c13,0,14,2.7,16.2,8.6l0.7,1.8l3.7-2.3l-1-4.2c-1.3-6.3-2.4-11.6-2.7-12.3l-0.1-0.4h-0.3
				L1413.5,282.4L1413.5,282.4z M1279.3,284.8v4.1h0.7c10.6,0.4,12.3,2.5,13.1,4.7c1.4,3.5,1.8,26.2,1.8,34.8v1.4
				c0,6.9,0,23.1-2.1,26.8c-0.7,1.3-3.4,3.4-13.7,4.2h-0.6v4.1l12.7-0.4h11.7l19.3,0.6v-0.7l-0.3-3.8h-0.6c-8.5,0-11.3-0.1-12.3-3.5
				c-0.6-1.7-0.8-9.5-0.8-22.6c0-31.3,0.1-39.6,2-42.6c2.1-3.5,9.6-3.1,11.8-2.8h0.7v-4.8h-9.5l-13.4,0.4l-8.9-0.3l-3.8-0.1
				l-6.9-0.3h-0.7v0.8L1279.3,284.8L1279.3,284.8z M1208.2,306.4c0,13.7,11.7,18.5,20.2,21.9l0.7,0.3c14.7,5.9,21.3,8.6,21.3,18.8
				c0,5.9-4.5,12.3-14.2,12.3c-8.6,0-15-3.7-18.6-6.8c-4.5-3.8-5.8-9.6-6.2-11.4l-0.1-0.6h-4.8l0.3,0.8c2.7,8.9,3.7,12.8,3.4,22.8
				v0.7l3.9,0.3l0.1-0.4c0.3-0.4,0.8-2,1.8-2s3.8,0.7,4.9,1l0.6,0.1l1.1,0.3c2,0.7,4.8,1.4,9.9,1.4c19.6,0,30.2-11.8,30.2-23.1
				c0-15.8-15.5-22-25.8-26c-9.7-3.8-17.2-7.2-17.2-15.2c0-7.9,6.1-13.1,15-13.1c8,0,13.7,4.5,15.1,6.1c3.2,3.1,4.1,6.6,4.8,10
				l0.1,0.6l0.6,0.1h3.5l-1.1-10.6c0-3.8,0.7-7.9,1.1-9.5l0.1-0.7l-3.7-0.6c0,0-2.3,1.4-2.5,1.7c-7.3-2-11-2.5-16.1-2.5
				C1220,283.4,1208.2,292.9,1208.2,306.4z M1151.7,283.5c16.8,0,28.6,9,28.6,22c0,10.4-9.2,17.6-17.9,20
				c16.1,22.8,19,26.4,25.5,32.3c0.3,0.1,5.4,5.1,11.6,5.5h0.7l-0.3,4.2h-0.6c-14,0-20.9-5.2-24.7-8.2c-12.1-9.5-24.1-28.1-26.4-32
				c-0.7,0-8.5-0.3-9.6-0.4c0,1.3,0,10.7,0,10.7s0,3,0,3.7c0,5.4,0.1,13.3,1.4,15.7c0.8,1.6,7.2,3.4,10.6,4.5l0.4,0.1l0.3,4.2
				l-0.8-0.1c-4.8-0.8-12.4-1.4-17.5-1.4c-2.8,0-15.1,0.8-17.8,1h-0.6l-0.8-3.7l0.7-0.1c1.7-0.3,8.2-1.8,9.7-4.8
				c1.3-2.5,1.1-16.6,1.1-22.7v-1.8v-18.6c0-24.1-1-24.1-10.6-24.7h-0.7l0.3-4.7l1.3,0.1c0,0,7.1,0.3,7.2,0.3l7.3,0.1
				c1.8,0,6.5-0.4,11-0.8l0,0l0,0L1151.7,283.5z M1138.7,321.3c2.4,0.3,5.8,0.3,7.9,0.3c7.2,0,19.2-2,19.2-15.1
				c0-6.9-5.1-17.2-19-17.2c-7.8,0-7.8,0.3-8,13.7C1138.8,303,1138.7,320.2,1138.7,321.3z M1091.2,284c-9.9,0.6-25.4,0.8-35.7,0.8
				c-6.2,0-21.9-0.4-27.8-0.6h-0.7v4.1h0.6c6.8,1.1,7.2,1.3,7.8,3c0.7,1.8,1.6,9.2,1.6,33.4c0,10.4-0.8,26.8-1.8,32.4
				c-0.6,2.7-3.9,3.5-9.3,4.2h-0.7l0.6,4.5l0.7-0.1c10.9-1.1,23.8-1.1,31.6-1.1l32.2,0.4l0.3-0.4c1.7-2.7,4.2-6.8,6.1-19.6l0.1-0.7
				l-3.8-0.3l-0.1,0.6c-2.7,7.3-8.2,15-27.6,15c-6.9,0-9.9-1-13.7-2.4c-0.4-2.3-0.7-5.6-0.8-15.5c0,0-0.1-12-0.1-14.8
				c5.2-0.7,9.9-0.7,12-0.7c15.7,0,16.9,1.3,19,10.9l0.1,0.6h3.8V337c-0.1-10.6-0.1-13.1,0.4-24.1v-0.7h-4.2l-0.1,0.6
				c-1.6,5.9-2.8,7.1-5.1,7.3c-11.4,1.6-22.7,1-25.4,0.8c0-1-0.4-10.6-0.4-10.6c0-5.1,0.4-13.1,1.4-18.6c4.2-0.8,12.1-1.6,15.5-1.6
				c8.9,0,14.1,1.1,16.5,3.7c2,2,2,5.1,1.7,8.5v0.7l4.5,0.6v-0.7c0-0.8,0.6-4.1,1-6.3l0.4-3c0.7-4.2,0.7-6.2,0.7-8.2v-1.3
				L1091.2,284L1091.2,284z M917.3,285l0.3,3.5l0.6,0.1c10.9,1.3,11.3,1.4,20,19.3l18.1,36.8l0.1,0.3c3.1,6.3,7.6,16.1,9.3,21.6
				l0.1,0.4h3.9l0.1-0.4c2.7-8,4.7-13.5,11-26.1l19.5-38.2c4.5-9,6.5-11.3,15.2-13.1l0.6-0.1v-4.4h-0.7c-4.9,0.1-9.9,0.1-14.8,0
				l-15.4-0.4v0.6l-0.3,4.2h0.7c4.1,0,9.3,0.4,9.3,4.8c0,2.4-1.7,6.3-2.8,8.9l-0.3,0.7c-3.9,9-6.5,13.8-9.2,19.2l-8.9,18.3
				c0,0-1.3,3-2.1,4.5c-8.7-14.1-24.7-51.8-24.7-54.2c0-0.8,0.3-1,6.8-1.8l2.1-0.3v-4.4h-12.3H937c-4.7,0-14-0.3-18.9-0.6l-0.8-0.1
				V285z M863.1,284.8v4.1h0.7c10.4,0.4,12.3,2.5,13,4.7c1.4,3.5,1.7,26.2,1.7,34.8v1.4c0,6.9,0,23.1-2.1,26.8
				c-0.7,1.3-3.4,3.4-13.7,4.2h-0.6v4.1l12.7-0.4h11.7l19.3,0.6v-0.7l-0.3-3.8H905c-8.5,0-11.3-0.1-12.3-3.5
				c-0.4-1.7-0.8-9.5-0.8-22.6c0-31.3,0.3-39.6,2-42.6c2.1-3.5,9.6-3.1,11.8-2.8h0.7v-4.8H897l-13.4,0.4l-8.9-0.3l-3.8-0.1l-7.1-0.3
				h-0.7V284.8L863.1,284.8z M816.8,283.5h-0.6v0.6l-0.7,3.7h0.7c15.5,0.8,13.1,1.3,13.5,33.3c0,0,0.1,19.3,0.1,21.6
				c-1.1-1.1-55.7-58.1-55.7-58.1l-0.1-0.3l-8.9,0.3l-5.9-0.3h-0.6l-5.4-0.4l0.1,0.7v3.9l0.4,0.1c11.1,2.1,13,3.2,12.7,26.1l-0.3,14
				c0,5.2-0.6,21-1.1,25.5c-0.6,4.7-2.3,4.9-5.2,5.5c-0.1,0-5.2,1.1-5.2,1.1v0.6v3.7l18.8-0.8l9,0.4l6.2,0.4l0.1-0.7v-3.9l-0.6-0.1
				c-15.4-2.7-15.2-4.4-15.1-17.5l0.4-33.3c0,0,0.1-2.8,0.1-4.8c3,3.1,58.3,60.4,57.8,60.5l0.1,0.3l5.2-0.1l-0.1-0.7
				c-0.4-6.5-0.4-23.3-0.4-30.5c0-10.9,0.6-36.1,1-39.4c0.7-5.4,5.4-6.6,9.9-6.6h0.7v-4.2H847c-8.6,0-13,0.6-16.8,0.1l-2.5-0.3
				l-5.9-0.3L816.8,283.5z M670.9,284.3l-4.7,0.1c-5.5,0-16.5,0.1-18.2,0.4h-0.6l0.3,4.4h0.7c5.2,0,7.1,0,8.2,0.8
				c1.6,1,2.7,10.3,2.7,22.4l-1,26.2c0,18.1,11.6,27.6,33.4,27.6c34.6,0,36.4-18.5,37-57l0.1-11.6v-0.4c0.1-5.6,0.3-8,9.6-8.5h0.6
				l0.3-4.5l-1.8,0.1l-14,0.3l-10.7-0.3l-4.8-0.1v0.7v3.9h0.7c4.1,0,8,0.3,9.7,2c2.5,2.5,3.2,13.3,3.2,18.6v7.1
				c0,26.7-1.8,42.9-26.7,42.9c-22.7,0-22.7-18.1-22.7-26.7v-15c0-27.9,1.1-27.9,13.5-29.1l0.6-0.1V284l-0.7-0.1
				C682.8,284.1,675.9,284.3,670.9,284.3z"/>
			<g>
				<g>
					<path class="st0" d="M616.7,777.8c0.3-3.5,0.3-7.8,0.3-9.7c0-11.1-4.1-14-15.5-15.4l0.1-3.7c1,0,4.7,0.3,7.1,0.4
						c13.4,0.7,13.8,0.7,20,0.6c10.3,21.6,12.7,26.7,22.8,45.1c1.6,2.4,9.5,17.1,9.6,17.2c3.2-6.3,3.2-6.5,8.3-16.4l7.1-13.7
						l16.2-32.4h23.4v3.7c-10.2,1.6-12.1,2.3-12.1,16.6c0,4.5,0.6,47,2.4,54.9c1.1,4.5,2.8,5.5,10.9,5.9v3.5h-16.8
						c-11.6,0-14.5,0-20.6,0.6l-0.4-3.5c9.7-2.5,12.6-3.5,12.6-18.6c0-13.4-0.8-32.2-1.8-45.4H690c-17.3,32.9-23.8,47-32.4,66.7
						h-2.8c-3.7-11.7-5.2-14.7-20-42.7c-3.5-6.8-9.2-17.3-10.9-20.7h-0.3c-0.1,4.5-0.3,5.2-0.7,10.6c-1.1,13.8-2,25.5-2,37.7
						c0,8.9,0.6,11,12.4,12.8l-0.3,3c-3.4-0.1-6.6-0.1-9.3-0.1c-2.7-0.1-5.2-0.1-7.3-0.1c-3.2,0-6.2,0-8.7,0.1
						c-2.4,0.1-4.8,0.3-7.2,0.4l0.3-3.2c13-1.8,13.3-7.9,14.2-24.4L616.7,777.8z"/>
					<path class="st0" d="M760,831.7c4.7-0.6,10.9-1.1,12.7-4.4c2.5-4.7,2.5-27.4,2.5-34.7c0-6.3,0-32-2.1-36
						c-0.7-1.4-1.8-3.7-12.1-3.7l0.1-3.7c1.8,0,7.1,0.1,12,0.3c5.1,0.3,9.7,0.4,10.4,0.4c3.4,0,15.5-0.4,19-0.6v4.2
						c-6.8,0-8.9,0.4-10.4,2.1c-3.2,3.7-3.2,27.2-3.2,34.1c0,6.3,0,32.2,0.8,36.1c1,4.1,1.8,4.9,12,5.8l-0.3,3.4l-21.7-0.3
						c-10.3-0.3-15.7,0-19.9,0.3v-3.5h0.2V831.7z"/>
					<path class="st0" d="M850.1,811.8c1.6,6.8,3.4,11.1,13.4,15.8c5.9,2.7,13.3,4.4,18.9,4.4c3.2,0,13.5-1,13.5-14.1
						c0-11.1-9.6-15.4-21.9-19.6c-12.3-4.4-22.7-10-22.7-24.7c0-14.2,11.7-24.4,28.6-24.4c3,0,16.6,1.7,18.9,1.7
						c1.4,0,2.8-0.3,3.8-1l2.3,0.6c-0.1,1-0.6,7.6-0.6,7.9c0,1.3,0.3,7.6,0.3,7.9v4.1h-2.8c-3.1-17.5-21.6-17.5-23.4-17.5
						c-12.6,0-15.7,8.9-15.7,15c0,6.9,2.7,11.8,19.2,17.6c11.1,4.1,26.1,9.7,26.1,26.9c0,9-4.9,24-31.2,24c-6.8,0-13-0.8-19.6-2.3
						c-0.3,0-1.3-0.3-1.7-0.3c-1.3,0-1.4,0.7-1.4,1.3h-3.7c-0.4-7.3-1.3-11.7-3.8-22.6L850.1,811.8z"/>
					<path class="st0" d="M956.8,811.8c1.6,6.8,3.4,11.1,13.4,15.8c5.9,2.7,13.3,4.4,18.9,4.4c3.2,0,13.5-1,13.5-14.1
						c0-11.1-9.6-15.4-21.9-19.6c-12.3-4.4-22.7-10-22.7-24.7c0-14.2,11.7-24.4,28.6-24.4c3,0,16.6,1.7,18.9,1.7
						c1.4,0,2.8-0.3,3.8-1l2.3,0.6c-0.1,1-0.6,7.6-0.6,7.9c0,1.3,0.3,7.6,0.3,7.9v4.1h-2.8c-3.1-17.5-21.6-17.5-23.4-17.5
						c-12.6,0-15.7,8.9-15.7,15c0,6.9,2.7,11.8,19.2,17.6c11.1,4.1,26.1,9.7,26.1,26.9c0,9-4.9,24-31.2,24c-6.9,0-13-0.8-19.6-2.3
						c-0.3,0-1.3-0.3-1.7-0.3c-1.3,0-1.4,0.7-1.4,1.3h-3.7c-0.4-7.3-1.3-11.7-3.8-22.6L956.8,811.8z"/>
					<path class="st0" d="M1058.7,831.7c4.7-0.6,10.9-1.1,12.7-4.4c2.5-4.7,2.5-27.4,2.5-34.7c0-6.3,0-32-2.1-36
						c-0.7-1.4-1.8-3.7-12.1-3.7l0.1-3.7c1.8,0,7.2,0.1,12,0.3c5.1,0.3,9.7,0.4,10.4,0.4c3.4,0,15.5-0.4,19-0.6v4.2
						c-6.8,0-8.9,0.4-10.4,2.1c-3.2,3.5-3.2,27.1-3.2,34.1c0,6.3,0,32.2,0.8,36.1c1,4.1,1.8,4.9,12,5.8l-0.3,3.4l-21.7-0.3
						c-10.3-0.3-15.7,0-19.9,0.3v-3.5h0.2V831.7z"/>
					<path class="st0" d="M1148.7,811.8c1.6,6.8,3.4,11.1,13.4,15.8c5.9,2.7,13.3,4.4,18.9,4.4c3.2,0,13.5-1,13.5-14.1
						c0-11.1-9.6-15.4-21.9-19.6c-12.3-4.4-22.7-10-22.7-24.7c0-14.2,11.7-24.4,28.6-24.4c3,0,16.6,1.7,18.9,1.7
						c1.4,0,2.8-0.3,3.8-1l2.3,0.6c-0.1,1-0.6,7.6-0.6,7.9c0,1.3,0.3,7.6,0.3,7.9v4.1h-2.8c-3.1-17.5-21.6-17.5-23.4-17.5
						c-12.6,0-15.7,8.9-15.7,15c0,6.9,2.7,11.8,19.2,17.6c11.1,4.1,26.1,9.7,26.1,26.9c0,9-4.9,24-31.2,24c-6.8,0-13-0.8-19.6-2.3
						c-0.3,0-1.3-0.3-1.7-0.3c-1.3,0-1.4,0.7-1.4,1.3h-3.7c-0.4-7.3-1.3-11.7-3.8-22.6L1148.7,811.8z"/>
					<path class="st0" d="M1255.4,811.8c1.6,6.8,3.4,11.1,13.4,15.8c5.9,2.7,13.3,4.4,18.9,4.4c3.2,0,13.5-1,13.5-14.1
						c0-11.1-9.6-15.4-21.9-19.6c-12.3-4.4-22.7-10-22.7-24.7c0-14.2,11.7-24.4,28.6-24.4c3,0,16.6,1.7,18.9,1.7
						c1.4,0,2.8-0.3,3.8-1l2.4,0.6c-0.1,1-0.6,7.6-0.6,7.9c0,1.3,0.3,7.6,0.3,7.9v4.1h-2.8c-3.1-17.5-21.6-17.5-23.4-17.5
						c-12.6,0-15.7,8.9-15.7,15c0,6.9,2.8,11.8,19.2,17.6c11.1,4.1,26.1,9.7,26.1,26.9c0,9-4.9,24-31.2,24c-6.8,0-13-0.8-19.6-2.3
						c-0.3,0-1.3-0.3-1.7-0.3c-1.3,0-1.4,0.7-1.4,1.3h-3.7c-0.4-7.3-1.3-11.7-3.8-22.6L1255.4,811.8z"/>
					<path class="st0" d="M1374,816.1c-1,2.4-3.2,7.9-3.2,10c0,5.1,6.6,5.9,10.4,6.5v3.1c-1,0-5.1-0.1-9-0.3
						c-3.9-0.1-7.6-0.3-7.9-0.3c-1.7,0-7.3,0-9.6,0.1v-2.7c2.1-0.4,5.6-1.1,8.2-5.4c4.8-7.6,28.5-65.7,30.2-70.5
						c1.4-3.4,2.3-5.9,3-8.3h3.5c0.8,2.8,1.7,5.8,3.2,10.3c2.8,8,16.5,43.4,19.3,50.6c7.9,22,10.3,22.4,15.8,23.3v2.7
						c-3.1-0.3-6.3-0.6-12-0.6c-8.5,0-15,0.7-19.2,1v-3.1c3.5-0.6,6.9-2,6.9-5.1c0-2-6.8-19.7-7.3-21.7c-2.4-0.3-3.9-0.4-9.9-0.4
						c-5.1,0-11.6,0-18.2,1L1374,816.1z M1380.6,799.6c3.7,0.6,8.9,1.3,14.8,1.3c4.5,0,6.8-0.3,8.9-0.6c-3.7-10.2-7.5-20.5-12-29.6
						L1380.6,799.6z"/>
					<path class="st0" d="M1480.9,768.5c-0.3-14.5-2-14.7-9.7-15.4V750h36.5l0.8,3.1c-0.3,0-1.6,0.1-2.1,0.3
						c-11.1,1.8-11.7,2.1-11.7,36.5c0,23.8,1.8,30.2,7.2,34.6c5.8,4.7,13.1,5.5,17.6,5.5c2.4,0,19.5-0.1,24.4-12.8
						c3-7.9,3.8-23.4,3.8-40.3c0-22.3-2.5-22.4-11.6-23l-0.6-3.8l7.3-0.3c2.1,0,4.5,0.3,7.2,0.3h13.4v3.8c-3,0.1-7.1,0.3-8,2.8
						c-1,2.4-1,16.5-1,20.2c-0.1,11.8-1.6,36-5.8,45.1c-5.8,12.3-23.7,14.2-34.1,14.2c-12.7,0-34.1-3-34.1-26.9
						c0-3.5,0.7-21.2,0.7-25.1L1480.9,768.5z"/>
					<path class="st0" d="M1678.5,770.3c-2-4.1-7.8-16.9-27.9-16.9c-17.9,0-33.7,13-33.7,38.4c0,25.1,17.8,39.6,35.4,39.6
						c6.1,0,14.1-2,16.2-6.2c1.1-2.1,1.1-7.1,1.1-9.5c0-18.5-0.4-18.5-15.1-18.5l0.4-3.9c3.8-0.1,20.7-0.3,24.4-0.4l9.5-0.4v3.8
						c-4.8,0.8-5.2,2.3-5.2,17.3c0,14.2,1.1,15,3.1,16.2v2c-7.3,1.6-27.4,4.2-36,4.2c-38.1,0-49.4-26-49.4-43.6
						c0-30.5,27.8-44,51.5-44c7.9,0,12.8,1.4,18.5,2.8c2.1,0.4,2.4,0.1,5.4-2.7h2.3c0.7,12.8,1.6,17.6,2.1,21.7
						C1681,770.3,1678.5,770.3,1678.5,770.3z"/>
					<path class="st0" d="M1746.5,816.1c-1,2.4-3.2,7.9-3.2,10c0,5.1,6.6,5.9,10.4,6.5v3.1c-1,0-5.1-0.1-9-0.3
						c-3.9-0.1-7.6-0.3-7.9-0.3c-1.7,0-7.3,0-9.6,0.1v-2.7c2.1-0.4,5.6-1.1,8.2-5.4c4.8-7.6,28.5-65.7,30.2-70.5
						c1.4-3.4,2.1-5.9,3-8.3h3.5c0.8,2.8,1.7,5.8,3.2,10.3c2.8,8,16.5,43.4,19.3,50.6c7.9,22,10.3,22.4,15.7,23.3v2.7
						c-3.1-0.3-6.3-0.6-12-0.6c-8.5,0-15,0.7-19.2,1v-3.1c3.5-0.6,6.8-2,6.8-5.1c0-2-6.6-19.7-7.3-21.7c-2.4-0.3-3.9-0.4-9.9-0.4
						c-5.1,0-11.6,0-18.2,1L1746.5,816.1z M1753,799.6c3.7,0.6,8.9,1.3,14.8,1.3c4.5,0,6.8-0.3,8.9-0.6c-3.7-10.2-7.5-20.5-12-29.6
						L1753,799.6z"/>
				</g>
			</g>
			<rect x="528.4" y="689.6" class="st0" width="1358.8" height="7.1"/>
			<g>
				<g>
					<g>
						<path class="st0" d="M63.2,118c-3.4,1-5.5,3.5-6.3,6.9c-2.3-0.1-4.8,0-7.2,1.7c-2.5,1.7-4.1,4.4-4.8,7.6
							c0,0.1-0.3,2.3-0.3,2.3c0,3.5,1.6,8,7.6,11.1c-0.1,0.7-0.3,1.4-0.3,1.4c0,2,0.6,4.8,3.5,7.3c1.4,1.3,3,2,4.5,2.5
							c-0.3,1.3-0.8,3.2-0.8,3.2l0.7,3.8c1.3,3.8,4.5,7.9,11.8,8.5c0.4,1.6,1.3,3.1,3,4.8c2.4,2.1,6.2,3.8,11.3,2.3
							c-0.6,1.4-1,2.8-1,4.2c0,2.5,0.7,4.9,2.3,7.1c4.5,6.6,12.3,3.4,17.2,1.1c2.4,2.8,5.6,4.2,9.9,3.4c6.8-1.4,9.9-5.5,11.7-9.6
							c0.4-0.1,4.9-0.8,4.9-0.8l0.8-0.6c2.7-1.7,4.9-5.4,6.9-10.3c4.8,4.2,8.7,10.3,9.3,11.6c0.8,2.1,2.8,5.5,8.3,14.1
							c0,0,3.9,6.5,5.1,8.3c-1.7,8.7-5.6,15.1-11.4,18.1l-3.1,1.6c-7.9,3.9-16.5,8.5-22,12.6c0,0-0.1,0-0.3,0
							c-4.1,0-6.5,0.8-8.2,1.7c-2.3-1-5.4-1.8-8.6-2c-10.7-0.1-15.5,5.9-17.3,9.5c-3.5,6.8-2.3,15,0.7,19.3
							c3.8,5.5,9.7,8.3,16.9,8.3c2.8,0,5.4-0.8,7.8-2c2.1,0.8,4.7,1.7,7.6,1.7c3,0,5.6-0.7,8.2-1.8c2.3,1,4.8,2,7.3,2
							c2.7,0,4.9-0.8,7.2-1.8c2,0.8,4.4,1.7,7.1,1.7c3.8,0,6.2-0.8,7.9-1.6c2.3,1,4.5,1.8,7.1,1.8c2.7,0,4.9-0.8,7.2-1.8
							c2,0.8,4.4,1.7,7.1,1.7c3.8,0,6.2-0.8,7.9-1.6c2.3,1,4.5,1.8,7.1,1.8c2.7,0,4.9-0.8,7.2-1.8c2,0.8,4.4,1.7,7.1,1.7
							c3.8,0,6.2-0.8,7.9-1.6c2.3,1,4.5,1.8,7.1,1.8c2.7,0,4.9-0.8,7.2-1.8c2,0.8,4.4,1.7,7.1,1.7c3.9,0,6.5-1,8.3-1.8
							c2.3,1,5.4,2,8.7,2c8.2,0,14.4-3.4,17.6-9.9c3.5-6.9,2.1-15.1-1-19.2c-4.1-5.5-9.6-8-16.6-8c-2.8,0-5.2,0.7-7.6,1.8
							c-0.4-0.1-2.1-0.6-2.7-0.8c-3.2-4.7-8-7.1-19.2-11.6l-1.7-0.7c-11.6-4.8-13.8-8.9-16.1-12.8l-0.3-0.6
							c-0.7-1.1-2.4-7.9-2.4-16.1c0-5.6,0.8-13.8,4.8-19.9c2.3-3.5,5.2-6.2,8.3-8.5c1,3.2,2.1,5.9,3.4,7.3l0.3,0.3l0.7,0.6l4.9,2.5
							l-0.6-1.3c2.1,5.1,5.2,10.4,11.3,11.3c2.3,0.3,4.1-0.3,5.9-1.1c2.1,1.8,4.8,3.5,8.5,3.4c3.4-0.1,5.4-1.4,6.9-2.8
							c6.8,1.1,10.6-1.7,12.4-4.5l2-5.6v-0.3c0-2.3-0.8-3.9-1.8-5.4c0.3-0.1,0.7-0.1,0.7-0.1c1.8-1,2.8-2.3,3.7-3.7
							c5.4-0.4,7.9-3.4,9-6.1c0.1-0.3,0.3-1.1,0.4-1.7c0.1-0.1,0.3-0.3,0.4-0.4c2.8,1,5.9,1.7,9.3,0.3c2.4-1.1,3.9-3.1,4.9-5.6
							c2.4,0.1,5.2-0.1,8-2c2.7-1.8,4.4-4.8,4.9-8.5c0-0.1,0.1-2,0.1-2c0-3.5-1.7-9.5-10.9-12.4c-0.3-2.4-1.3-4.8-3.2-6.8
							c-4.5-4.7-9.9-3.7-13.8-2.1c1.3-0.8,2.3-2,3-3.4c5.1,1.1,13.8,2.4,17.6-5.2l1-3.7c0-0.4-0.4-2.1-0.8-3.5
							c4.8-3.7,5.9-7.8,5.9-10.7l-1.3-5.9c-2.4-5.4-6.5-7.3-12.3-6.6c-0.3-1.3-0.7-2.4-1.6-3.4c-0.1-0.1-0.3-0.3-0.6-0.4
							c0.4-1.7,1-3.7,1-3.7l-1-4.8c-1.3-3.2-3.5-5.5-6.3-6.6c-2.4-1-5.1-0.8-8-0.3c2.5-2.3,4.2-4.7,4.7-7.1c0-0.3,0.1-1.8,0.1-1.8
							l0,0c0-2.7-0.8-5.1-2.5-7.1c-3.4-4.2-8.3-5.4-14.4-3.9c-1.1-1.4-2.7-2.8-5.8-3.5c-5.2-1.3-9.3,1.8-12.1,4.2
							c-0.8-0.6-2.5-1.7-2.5-1.7h-0.6c0,0-0.8,0.1-1.4,0.1c-0.1-3-1.3-5.6-3.5-7.9c-3-3-6.3-4.5-10-4.5c-1.4,0-2.7,0.4-3.9,0.8
							c1.4-2.1,2.4-4.2,2.4-6.3l-1.1-4.5c-1.8-3.5-3.8-4.9-5.6-5.8V19c0-9.5-6.2-12-8.9-12.6c-4.8-1.1-9.2,0.7-13.3,4.9
							c-0.8-0.4-1.8-0.7-2.8-0.8c-2.1-2.4-4.8-3.8-7.6-4.2c-8-1-11.3,6.3-12.8,10.7c-1.6-0.1-3.5,0.1-5.5,1.3c0,0-1.4,1.4-2.5,2.5
							c-0.7-0.3-0.7-0.4-1.3-0.7c-1.3-8-5.4-10.7-7.9-11.4c-2.3-0.7-4.2-0.6-6.1-0.1c-6.5-6.9-12.3-6.8-15.9-5.1l0,0
							c-3.9,1.8-6.1,5.5-6.1,10c0,0,0.7,3.7,1.1,5.5c-1.1,0.7-2.1,1.6-2.8,2.7c-3.9-1-8-0.6-11.6,2c-3.2,2.3-5.1,5.8-5.1,9.9
							c0,3.1,1,5.8,2.1,8c-2,1.8-3.4,3.9-3.5,6.2c0,0.1-0.1,1.4-0.1,1.4s0.4,1.6,0.7,3c-3.1,0.4-5.9,1.7-8.2,4.2
							c-1.6,1.7-2.4,3.7-2.8,5.8c-1.8-5.2-5.1-8-9.7-8.2c-2.4,0-4.4,1-6.2,2.8c-3.9-2.8-7.6-2.5-10.2-1.6c-2.7,1.1-7.3,4.2-7.3,12
							c0,0.1,0.3,2.3,0.4,3.7c-1.6,1-3.1,2.4-4.1,4.5c0,0.1-0.1,0.1-0.1,0.3c0,0.1-0.1,0.1-0.3,0.4l0.1-0.1
							c-0.3,0.7-0.4,1.6-0.8,3.2v0.1c0,2.3,0.8,4.2,2.1,6.1h-0.1c-1.4,0.6-4.2,2.1-5.6,6.2c-4.1,0.4-7.5,2.5-9.5,6.6
							c-0.1,0.4-1.4,5.8-1.4,5.8l-0.1,0.6l1.3,5.2c1.3,2.5,3.5,4.4,6.3,6.1c-0.1,0.1,0.6,0.6,0.7,1.4C63.8,117.5,63.2,118,63.2,118z
							 M68.2,113.4l-1.8-0.8c-3.1-1.4-5.1-3-5.9-4.8c0,0-0.7-3-0.8-3.8c0.1-0.8,1.3-5.4,1.3-5.4l-0.1,0.8c1.6-3.1,3.9-4.7,7.2-4.5
							h1.7l0.4-1.7c0.7-3.1,2.7-4.1,3.5-4.4l6.8-1.1l-2.8-3c-2.1-2-3.1-3.8-3.1-5.8l0.4-2.4c0.6-1.6,1.8-2.5,3.7-3.4l1.3-0.7l-1-5.9
							c0-3.8,1.6-6.5,4.8-7.9c2.5-1,4.8-0.4,7.2,1.8l1.7,1.6l1.4-1.8c1.3-1.7,2.5-2.5,4.2-2.5c2.1,0,5.1,0.8,6.6,7.8l0.6,1.7
							c0,0,2.1-0.8,3.1-0.8c1,0.1,2.8,1.7,2.8,1.7l1.1-1.4l-0.7-3.2v-0.1c0-1.6,0.7-3.1,2-4.5c2.3-2.4,4.7-3.4,7.6-3.2l3,0.1
							l-1.6-2.8l-0.6-3.7l0.1-1.4c0.1-1.4,1.1-3,3.1-4.4l1.4-1l-0.8-1.6c-1.1-2.1-2.3-4.8-2.3-7.6s1.1-4.9,3.4-6.5
							c2-1.4,5.2-2.8,9.3-1.1l1.8,0.7l0.8-1.8c0.6-1.4,1.7-2.4,3.1-3l1.6-0.7l-0.4-2l-1.3-5.8c0-2.1,0.7-4.8,3.7-6.2
							c3.8-1.7,7.8-0.1,12,4.8l1,1.1l1.4-0.6c1.4-0.6,3-0.6,4.7,0c2.8,0.8,4.7,4.1,5.2,9l0.1,1.1l1.6,0.6l1.3,0.6l2,1.8l1,0.3l1.6-2
							l2.4-2.4c1.6-1,3-1,4.5-0.7l1.8,0.3l0.6-1.7c2-6.2,4.2-10.2,8.9-9.5c2.1,0.3,3.9,1.3,5.5,3.2l0.6,0.7h0.8
							c1.3,0.1,2.5,0.4,3.5,1l1.6,1l1.1-1.4c3.2-3.9,6.5-5.4,10-4.5c2.5,0.7,5.6,2.7,5.6,8.5l-0.1,2.8l1.4,0.6
							c1.6,0.6,3.2,1.6,4.8,4.2l0.8,3.4c0,1.4-1.4,3.7-3.9,6.3l-0.7,0.7l0.3,1.3l1,5.6l2.8-2.3c2.3-1.8,4.2-2.7,6.3-2.7
							c2.5,0,4.8,1,6.9,3.2c1.7,1.7,2.5,3.5,2.5,5.8l-0.7,3.1l3.2,0.4l2.1-0.4c-0.1-0.1,3,1.8,3,1.8l1.3,0.8l1.1-1
							c2.8-2.5,6.2-5.1,9.7-4.2c2.4,0.6,3.5,1.7,4.2,2.8l0.8,1.3l1.4-0.4c5.1-1.6,8.6-0.7,11.3,2.4c1.1,1.3,1.6,2.8,1.7,4.2
							l-0.1,1.7c-0.3,1.4-1.8,3.4-4.2,5.4l-1,0.8l1.3,6.5l2.3-0.7c3.1-1,5.6-1.1,7.8-0.3c1.7,0.7,3.1,2.1,3.8,3.9l0.8,4.1
							c0-0.4-1.1,3.2-1.1,3.2l-0.4,1.4l1.1,1.3l1.3,0.8c0.1,0.4,0.4,1.6,0.6,3l0.3,2.3l2.3-0.6c5.1-1.1,7.8-0.1,9.5,3.7l1.1,5.1
							c0,2.8-1.8,5.5-5.4,7.8l-1.3,0.8l0.6,1.8c0,0,0.8,2.8,0.8,3l-0.7,2.7c-2.4,4.5-8.6,3.5-14.2,2.3l-1.8-0.4l-0.7,2.1
							c-0.6,1.8-1.8,3-4.1,3.8l-1.8,0.7l0.7,2.3l0.6,1.6c0,0.1-0.3,1.1-0.3,1.1l-0.7,4.4l3.8-2.3c5.9-3.4,9.9-3.7,12.8-0.6
							c1.6,1.7,2.3,3.4,2.3,5.2v1.6l1.6,0.6c5.9,1.6,9,4.5,9,8.7l-0.1,1.8c-0.3,2.1-1.4,4.1-3.1,5.4c-2.1,1.6-4.5,1.4-6.6,1.1
							l-1.8-0.3l-0.7,1.9c-0.6,2.4-1.6,3.8-3.4,4.5c-2.4,1.1-4.9,0.3-7.3-0.7l-1.1-0.4l-1.3,1.1l-1.7,1.6l-0.3,0.7l-0.6,2
							c-1,2.3-3,3.4-6.3,3.4h-1.4l-0.6,1.4c-0.4,1.1-1.1,1.8-2.1,2.5c-0.3,0-2.5,0.6-2.5,0.6l-1.1,0.3l-0.7,3.2l0.7,1.1
							c1.1,1,2,2.3,2.1,4.2c-0.3,0.7-1.4,4.4-1.4,4.4c-1,1.3-3.1,3.5-8.7,2.1l-1.1-0.3l-0.8,0.8c-1.1,1.1-2.4,2.1-4.9,2.3
							c-2.7,0.1-4.7-1.4-6.5-3l-1.3-1.1l-1.4,0.8c-1.4,0.8-3,1.3-4.8,1c-3.9-0.6-6.2-4.5-7.9-8.7l-0.3-0.7l-1.1-0.1l-4.9-2.5
							c-0.3-0.6-1.7-2.5-3-8.2l-0.6-2.7l-2.4,1.4c-4.7,2.7-8.9,6.6-12,11.4c-4.5,7.1-5.5,15.9-5.5,22.1c0,8.5,1.7,16.1,3,18.2
							l0.3,0.6c2.4,4.1,5.2,9.3,18.1,14.7l1.7,0.7c11.3,4.8,15.4,6.6,17.8,10.7l0.4,0.7l5.4,1.6l0.7-0.4c2.1-1.1,4.4-1.7,6.8-1.7
							c5.8,0,10,2.1,13.4,6.5c2.3,3.1,3.2,9.6,0.7,14.8c-2.4,4.9-7.3,7.6-13.8,7.5c-2.3,0-5.1-0.7-7.9-2l-1-0.4l-0.8,0.4
							c-1.4,0.8-3.5,1.7-7.2,1.7c-2.1,0-4.2-0.8-6.1-1.6l-1-0.4l-0.8,0.6c-2,1.1-4.1,1.7-6.3,1.7c-2,0-4.1-0.8-6.2-1.7l-0.8-0.4
							l-0.8,0.4c-1.3,0.7-3.5,1.6-7.1,1.6c-2.3,0-4.2-0.8-6.1-1.6l-1.1-0.4l-0.8,0.6c-2,1.1-4.1,1.7-6.5,1.7c-2,0-4.1-0.8-6.1-1.7
							l-0.8-0.4l-0.8,0.4c-1.3,0.7-3.5,1.6-7.1,1.6c-2,0-3.8-0.6-6.1-1.6l-1-0.4l-0.8,0.6c-2,1.1-4.1,1.7-6.3,1.7
							c-2,0-4.1-0.8-6.2-1.8l-0.8-0.4l-0.8,0.4c-1.3,0.7-3.5,1.6-7.1,1.6c-2.3,0-4.2-0.8-6.1-1.6l-1-0.4l-0.8,0.6
							c-2,1.1-4.1,1.7-6.5,1.7c-2,0-4.1-0.8-6.2-1.8l-0.8-0.4l-0.8,0.4c-2.3,1.1-4.8,1.7-7.6,1.7c-2.4,0-4.7-0.7-6.6-1.6l-1-0.4
							l-0.8,0.4c-2.1,1.1-4.4,1.7-6.9,1.7c-5.8,0-10.4-2.3-13.4-6.5c-2.3-3.2-3.1-9.9-0.4-15c1.4-2.7,5.1-7.3,13.7-7.2
							c2.3,0,5.1,0.7,7.8,1.8l0.8,0.4l0.8-0.4c1.4-0.7,3.5-1.6,7.2-1.6l1.6,0.1l0.6-0.4c5.5-4.4,16.2-9.7,22-12.6l3.1-1.6
							c7.1-3.7,12-11.3,13.8-21.7l0.1-0.7l-5.9-9.7c-4.9-7.9-7.2-11.7-7.9-13.4c-1-2.4-6.5-10.7-12.7-15.1l-2.3-1.7l-1,2.7
							c-2.5,7.2-4.9,9.9-6.5,10.9c0,0-2.1,0.4-3.4,0.6c-0.4-0.4-2-2.3-2-2.3l-1.3,3.1c-1.6,3.8-3.7,7.6-9.5,8.7
							c-2.1,0.4-5.1,0.3-6.8-2.7l-1-1.7l-2,1c-5.5,2.7-10.6,4.7-13.1,0.8c-1-1.6-1.6-3.1-1.6-4.8c0-2.5,1.3-5.1,3.8-7.8l-2.7-3.1
							c-5.4,3.9-9.6,4.4-12.8,1.4c-1.4-1.3-2-2.7-2.3-4.1l-0.4-1.7H73c-5.1,0-8-1.7-9.3-5.5c0,0-0.3-2-0.4-2.7
							c0.1-0.6,0.6-2.1,0.7-2.8c0.3-0.1,4.2-3.2,4.2-3.2l-4.9-0.8c-2-0.1-3.5-0.8-5.1-2.3c-1.4-1.3-2.1-2.7-2.1-4.2l0.7-3.4l-1.6-1
							c-4.4-1.7-6.5-4.4-6.5-7.9l0.1-2.1c0.4-1.8,1.4-3.5,3-4.5c1.8-1.3,3.9-1.1,5.9-1L60,130l0.1-2.3c0.1-2.1,1-4.8,4.4-5.5
							l3.8-0.4l1.1-0.3l-1.3-1.3c0,0-1.4-3-1.4-3.7C67.2,115.6,68.2,113.4,68.2,113.4z"/>
					</g>
				</g>
				<path class="st0" d="M159.4,265.5c2,2.8,5.4,4.5,8.7,4.5c3.8,0,5.2-1.6,5.4-1.7c0.7-0.8,2-1,2.8-0.3c0.1,0.1,2.3,1.8,6.1,1.8
					c1.8,0,3.1-0.3,4.1-0.7c-0.4-0.4-1-0.8-1.3-1.4l-8.5-12.4c-2-2.8-5.4-4.5-8.7-4.5c-3.8,0-5.2,1.6-5.4,1.7c-0.7,0.8-2,1-2.8,0.3
					c-0.1-0.1-2.3-1.7-6.1-1.7c-1.8,0-3.1,0.3-4.1,0.6c0.4,0.4,0.8,0.8,1.3,1.4L159.4,265.5z"/>
				<path class="st0" d="M98.5,265.5c-1.3-1.8-2-6.5-0.1-10c1.7-3.1,4.8-4.7,9.5-4.7c3.5,0,8.5,1.7,10.4,4.5l8.5,12.4
					c0.4,0.6,1,0.8,1.6,1.3c-1,0.4-2.5,0.8-4.8,0.8c-4.2,0-6.8-1.8-6.8-1.8c-0.8-0.6-2-0.4-2.7,0.3c0,0.1-1.6,1.7-5.9,1.7
					C103.7,270,100.6,268.6,98.5,265.5z"/>
				<path class="st0" d="M145.7,80.6c1.7-1.3,3.9-2.8,6.8-4.4c3.2-1.8,6.8-3.2,9.3-3.9c-3.5-6.6-8-6.9-10.3-7.1l-2.3-0.6
					c-0.3-0.1-0.3-0.3-0.6-0.4c-0.7-0.6-2.3-2-3.1-1.6c-0.3,0.4,0,2.3,0.1,3l0.1,2.3l-0.6,1.4C144.3,70.8,142.4,74.2,145.7,80.6z"/>
				<path class="st0" d="M189.6,63.9C189.6,63.8,189.6,63.8,189.6,63.9c-0.1-0.1-0.3-0.3-0.3-0.4L189.6,63.9z"/>
				<path class="st0" d="M105.3,106l-0.7,1.7l-3.4,1.6c-0.4,0.3-1,0.6-1.7,0.4l0,0c-1.8,0.4-3.2,1.1-3.7,2.8
					c-0.6,2.3,1.1,3.5,3.2,4.8c0,0,2.1,2.3,2.1,2.4c0.1,0.4,0.1,0.8,0.3,1.4c2.1-0.6,4.8-0.4,7.9,0.7c0.6-0.3,1.1-0.7,1.8-0.8
					c3.2-0.7,6.5,1.3,8.5,2.7c0.7-1.6,2-3.7,4.4-3.1c3.4,0.8,5.6,3.2,7.1,6.3c0.6-0.8,1.1-1.7,2-2c0-0.3-0.1-0.6-0.1-0.8
					c0-1.3,0.3-2.5,0.8-3.2c0,0,1.3-1.1,1.4-1.4l-0.1-0.1c-1-0.8-2.3-2.3-3.1-3.9c-3.8,1.7-10.6,3-15.1,1c-2.8-1.1-4.4-3.4-4.8-6.3
					c-2.5-1.6-4.5-3.8-5.6-6.2C105.8,104,105.5,104.6,105.3,106z"/>
				<path class="st0" d="M95,128.4c-1.4,0-2.5,0-3.2,1.1c-0.7,1-0.3,2,0.3,3.2c0,0.1,0.3,0.7,0.3,0.7l0.7,2.1l1.7,4.7
					c1.4,2.7,4.4,4.7,6.1,5.6l7.5-12.4c-1.3-1.3-2.5-3.1-2.5-5.5c0-0.8,0.3-1.8,0.7-3c-4.4-1.1-7.2,1-8.7,2.3l-1.3,0.8L95,128.4z"/>
				<path class="st0" d="M219.1,112.6c0.1-0.1,0.3-0.3,0.3-0.3c2.7-2.5,6.1-5.8,9.2-6.1c-1.4-2.4-2.1-5.1-2.3-7.6
					c-1.3,2.7-4.5,4.8-7.1,6.2c0.6,0.6,1.3,1,1.4,2c0.1,0.4,0.1,0.8,0.1,1.3c0,1.4-0.4,2.7-1.4,4.1
					C219.4,112.3,219.2,112.5,219.1,112.6z"/>
				<path class="st0" d="M251.2,122.3c0-0.1-0.1-0.3-0.3-0.7C251,121.6,251.1,122,251.2,122.3L251.2,122.3z"/>
				<path class="st0" d="M234.6,120.4c0.4,1.1-6.1,4.1-11,5.6c-2.3,0.7-4.7,1.8-6.6,2.8c0,0,0,0.1-0.1,0.1c-1.7,1.1-3.2,2.8-4.8,5.1
					c2.4,1.4,9.5,3,10.9,2.7l0.3-1c0.1-1,0.4-2.5,2-3.2l3.7,0.3c2.7,0.7,6.9,1.8,9.6-0.1l-0.6-0.8l-1.4-3c-0.3-0.6-0.6-0.6-0.3-1.1
					c0.3-0.6,0.6-0.3,1.1-0.3l3.7-0.3c1.7,0.3,3.1,0.4,4.2,0.3c0.3-0.1,0.7-0.1,1-0.1c1-0.1,1.6-0.6,1.8-1.4l-0.3-1.7l-0.7-2.5
					c0-1.7,1.6-2.4,3-3.2c3-1.6,4.2-2.5,3.1-5.2c-0.4-1.1-4.2-0.3-5.9,0l-4.1,0.1l-1.7-2.1c-0.3-0.7-0.4-1.1-1.4-1.6
					c-0.7-0.3-3,1.1-3.8,1.8c-1.6,1.1-3,2-4.4,1.3l-2-2l-0.6-0.6c-0.6-0.3-2.3,0.4-7.2,5.1l-3.7,2.7c-0.3,0-1.7-0.1-2.5-1.7
					c-2.1,0.3-4.8,5.9-6.2,10.6c2.7-1,8.6-3.4,12.6-4.7C227.4,120.5,234,119.1,234.6,120.4z"/>
				<path class="st0" d="M112,91.3l-1.7,0.3l-1.8,0.1c0,0-0.8,0.1-1-0.1c0,0.1,0.1,0.7,0.1,0.7l0.6,2.5v0.1c0,4.1,1.7,9.3,6.2,11.8
					c0,0,0.1,0,0.1,0.1c0.1,0,0.8-0.1,2.3-1.6c3.7-3.8,7.2-11.1,7.5-13.5C118.8,90,114.4,90.7,112,91.3z"/>
				<path class="st0" d="M288.2,88.8c-0.4,0.3-1,0.7-1.6,1c1.7,0.8,3.5,2.5,3.5,6.1c0,0.3,0,0.4,0,0.7c-0.4,5.6-9,5.9-14.7,5.9
					c0.7,1.1,1.3,2.4,1.3,3.8c0,0.6-0.1,1.3-0.4,1.8c-2.7,6.5-13.8,6.1-19.2,5.9c0,0.3,0.1,0.7,0.1,1c0,0.7-0.1,1.4-0.4,2.1
					c1.4,0.3,2.5,0.7,3.2,1.3c0.3,0.3,0.4,0.4,0.6,0.7c5.5-0.6,9.9-0.1,13,1.3c0.8-1.1,2.3-1,3.8-0.8c3.4,0.4,5.6,0.3,6.1-1.3v-1.1
					c-0.1-1-0.1-2.7,1.4-3.9c1.4-1.1,3.4-0.7,6.5,0c3.2,0.7,8.3,1.8,9.3-0.3c0.1-0.4-0.6-1.6-1-2.3c-0.8-1.3-1.8-2.8-1.1-4.5
					l2.3-1.8c4.2-2.1,6.2-4.1,4.4-8c-0.8-1.8-2.5-1.7-6.1-0.7c-2.1,0.6-4.9,1.4-5.9-1.1l-0.1-3.2c0.1-1.3,0.1-2-0.1-2.5
					c-0.3-0.3-1.1-0.8-3.5-1.1C289.2,88.1,288.6,88.5,288.2,88.8z"/>
				<path class="st0" d="M224.7,93.1c0.7,0.7,1.4,1.6,1.8,1.8c0.3-1.8,0.8-3.5,1.6-4.8c2.8-4.8,8.5-6.3,10.3-5.9
					c3.4-2,7.1-2.7,11-2.3c0.7-1.6,2.8-5.1,5.6-6.8c0-0.6-0.1-1.8-1.8-3.2c-2-1.6-4.2-0.4-7.2,1.3c-1.8,1-3.4,2-4.9,1.6
					c0,0-1.8-1.4-2.1-2c-0.4-0.8-1.7-3.1-2.7-3.9c-0.8,0.6-1.7,1-2.8,1.6c0.4,0.8,1,1.8,1,3.1c0,0.6-0.1,1.3-0.3,1.8
					c-0.8,2.4-3.1,4.2-4.8,5.4c0.4,1.1,0.6,2.1,0.6,3.1C230.1,87.2,228.1,90.2,224.7,93.1z"/>
				<path class="st0" d="M208.9,72.3c0.7-5.4-1-9.2-1.7-10.7l-0.3-1.1c-0.3-1.1-0.4-1.7-1.6-2.1c-0.8-0.3-2.3,0.6-3.1,1.1l-1.3,0.7
					c-2.3,0.8-7.1,3.1-9,7.9c6.5,0.4,15.2,3.2,16.8,3.9C208.8,72.1,208.9,72.1,208.9,72.3z"/>
				<path class="st0" d="M256.5,85.7l-1.4,0.4l-2.7,0.6c-0.3,0-0.3-0.1-0.6-0.1c-1.6-0.4-6.3-1.7-11.7,1.6
					c-0.3,8.2,4.9,11.7,10.9,14c3.9-3.2,4.7-7.2,4.7-9.9c0-0.7,0-1.4-0.1-2v-1.1l0.6-1.8C255.8,87.4,256.2,85.8,256.5,85.7z"/>
				<path class="st0" d="M213.2,141.4c1.1-0.6,1.7-0.8,1.7-2.1c-1.8-0.6-3.7-1.1-4.9-2c-1.3,2.3-2.5,4.8-3.5,7.6
					c-1.6,4.1-1.8,9.2-2,13.7c0,0.6-0.1,1.1-0.1,1.7c1.6-1.8,3.2-3.9,5.1-5.9c-1.7-2.7-2.4-7.2,0.3-10.6L213.2,141.4z"/>
				<path class="st0" d="M243.3,135.2c1.3-0.8,2.1-1.6,2.1-2.4c0-0.1,0-0.3,0-0.3c0-0.4-0.1-0.7-0.1-1c-1.3,0-2.5,0-3.7-0.1
					c0.1,0.4,0.6,0.8,0.6,1.3c0,1-0.4,1.8-1.3,2.5c-4.4,3.9-10.2,2.3-13.3,1.4c0,0-0.3,0-0.6-0.1c-0.1,1.1-0.6,2.8-2.3,3.8
					c-1,0.4-3.2,0.4-5.9,0c-0.4,2.8-2.1,3.9-3.9,4.8l-2.1,1.6c-1.3,1.6-1,3.5-0.4,4.9c2-2,3.8-3.5,5.6-4.7c0.1,0,3.2-2,5.9-3.4
					c0.8-0.4,6.2-2.5,6.9-1.1s-4.5,4.5-5.2,4.8c-2.3,1.1-3.5,2-4.2,3.1c-1.1,2.4-2.5,5.1-3.4,7.2c1.7-0.4,3.8-0.6,6.2-0.4l2.8-0.8
					c1.6-0.3,4.8-0.8,5.6-1.6l0.6-0.7l-0.8-1.1c-0.4-0.6-1.4-1.6-1.4-2.8c0-0.6,0.1-1.1,0.7-1.7l4.1-1.3c4.4-0.6,6.8-1.3,7.1-3.5
					c0-0.1,0-0.3,0-0.4c0-1-0.4-1.4-1-2c-0.4-0.6-1.3-1.4-1.3-2.5c0-0.3,0-0.7,0.1-1L243.3,135.2z"/>
				<path class="st0" d="M277.5,75.8c-0.4-1.4-0.7-2-1.6-2.1c-2.7-0.4-4.9,1.8-7.2,4.7c-1.6,1.8-2.8,3.5-4.8,3l-2.5-1.6
					c-1.4-1-2.3-1.7-3.7-1.3c-1.4,0.3-2.8,2.1-3.8,3.7c1.4-0.6,3.5-1.3,5.2,0.4c2,2,1,4.5,0.4,5.9c0,0-0.3,0.7-0.3,1.3
					c0.1,1,0.1,2.7,0,4.7c3.8-2.5,10.9-7.3,11.8-6.9c1.1,0.6-4.9,7.3-10.9,11c-1.3,0.8-2.5,1.6-3,1.8c-0.8,1.4-2,2.8-3.7,4.2
					c0.1,1.3-0.3,2.5-0.8,3.8c1,0.1,2,0.6,2.7,1.1h1.4c3.5,0.1,14.1,0.7,15.8-3.4c0.4-0.8-1-2.8-1.6-3.7c-0.7-1-1.4-2-0.8-3.1
					c0.6-1.4,1.7-1.4,4.2-1.4c10.2,0.1,11.7-1.3,11.7-2.3c0.1-2.4-1-3-2.7-3.5l-2-1.4c-0.7-0.6-0.4-0.8-0.1-1.7
					c0.6-1.7,2.4-3,4.5-4.2c0.6-0.4,1.1-0.7,1.6-1.1c0.3-0.3,0.4-0.4,0.8-0.6c2.7-2,3.9-3.8,2.8-6.6c-0.4-0.8-0.8-1.3-1.3-1.4
					c-2.1-0.8-6.2,1-7.9,1.8c0,0-2.4,0.7-2.5,0.7C278.2,78,277.8,76.8,277.5,75.8z"/>
				<path class="st0" d="M274.9,126c-2-2.7-7.1-3.7-14.4-2.8c-0.6,2.1-1.1,5.5-0.6,10.2c0.4,3.2,1.8,5.6,3.2,7.6
					c0.1,0.3,0.4,0.6,0.6,0.8c9-1.7,10.7-6.6,11.4-9l0.7-1.7l1.8-1.6c0,0,1.3-1.1,1.3-1c-0.1-0.4-1.4-0.8-1.8-1.1
					C277.1,127.4,275.2,126.3,274.9,126z"/>
				<path class="st0" d="M201.5,130.7c0.6-0.3,1.1-0.6,1.1-0.6c0.7-0.4,1.6-0.8,2.5-1.1c0.3-1.4,1.1-4.7,2.5-7.8
					c-2.8,1.4-5.5,2.5-6.9,3c0.4,1.6,0.6,3.7,0.7,6.2C201.5,130.2,201.5,130.5,201.5,130.7z"/>
				<path class="st0" d="M216.7,107.5l-0.8-0.1l-2.4-1.1c-0.6-0.3-1,0-1-0.7c-0.1-0.7,0.3-0.6,0.7-1l3-2.5c1.7-1,7.2-3.8,6.6-5.6
					l-1.1-0.8l-1.7-1.8c-0.3-1.4,0.7-2.1,1.4-2.7c3.1-2.4,5.9-5.4,4.4-8.9l-1.4-0.1l-2.8-0.7c-1.3-0.7-1.4-2.3-1.6-4.1
					c-0.1-1.1-0.3-3.7-1-4.1c-0.1,0-1.3-0.4-5.4,3.2l-1,0.8c-1.1,0.6-2.1,0-2.7-0.3l-1-0.4c-2.4,0-3.2,5.8-3.5,7.8l-0.8,2.3
					c-0.8,0.8-2.1,0.8-3.4-0.1l-0.7-0.4c-1.4,0.6-2.3,1.3-2.7,2.3c-0.3,0.7-0.4,1.4-0.4,2.3c0,2.7,1.4,6.1,2.1,7.8
					c0.3,0.8,0.7,1.7,0.7,2.5c0,0.7-0.3,1.3-1.1,1.7l-1.6,0.3c-0.7,0-1,0-1.6,0.7c-0.7,0.7-0.8,1.8-0.8,3c0,2.8,1.4,6.6,3,9.6
					c0.3-1.1,0.7-2.3,1.1-3.5c1.1-3.9,7.9-15.9,9.6-15.2c1.7,0.7-5.4,13-6.5,16.5c-0.7,2.1-1.1,4.1-1.4,6.1
					C205.8,117.8,217.7,111.8,216.7,107.5z"/>
				<path class="st0" d="M151.7,120.6c0-2.4,1.7-4.5,3-5.6c-0.8-1.4-1.4-3.2-1.4-5.1c0-2,0.7-3.8,2.5-5.5c-1.4-1.3-2.8-1-4.7-0.1
					c-0.8,0.4-2.1,1-3.2,0c-0.3-0.3-0.4-0.6-0.6-0.8c-0.8-2.3-2.7-5.9-4.4-6.6h-0.8c-3.4,1.4-3.4,5.1-3.2,8.6
					c0.1,1.7,0.1,2.8-0.8,3.7l-1.7,1c-0.8,0.3-1.1,0.4-1.3,0.8c-0.6,1.8,1,3.7,2.8,5.5c1.1,1.1,2.1,2,1.7,3.4c0,0-2.4,3.1-2.7,3.1
					c-0.1,0.4-0.1,1.8,0.1,2.4c0.1,0.3,0.1,0.6,0.1,0.8c2,2,3.8,5.5,4.5,9.6c0.3-0.1,0.3-0.3,0.6-0.4l3,0.4c0.4,0.1,0.7,0.6,1,0.8
					c-0.4-1.6-0.7-3.5-1-5.5c-1-8.9-0.4-11.7,0.7-12.1c1.1-0.4,1.6,3,3.1,12.1c0.8,4.9,2.1,9.2,2.4,10.3c0.7,0.3,1.6,0.8,2.4,1.6
					c1.7-1.1,5.4-4.1,5.6-6.6V135v-0.1c-0.3-1.1-0.4-2.1-0.4-2.8c0-1.8,0.7-3.1,1.4-4.1C157.3,127.1,151.7,126,151.7,120.6z"/>
				<path class="st0" d="M174.2,186.8c0.1-0.8,0.3-2,0.3-3.9c0-3-0.4-7.6-1.6-14.5c-2.7-15.7-11.1-18.1-15.1-19.3
					c0,0-0.3-0.1-0.4-0.1c1,2.7,1.7,5.8,1.7,10.3c0,0.4,0,1.8,0,2C159.1,173.7,170.3,183.8,174.2,186.8z"/>
				<path class="st0" d="M130.8,143.6c2.5,2,5.2,3.8,7.3,5.1c0.1,0.1,0.3,0.3,0.6,0.3h0.1c3.2,2.1,6.6,3.4,7.3,3l0.1-1.1
					c-0.3-8-2.1-11.3-3-11.7c-0.3,0.1-1.1,1-1.6,1.7c-0.4,0.8-1.4,1.3-2.3,1s-1.6-1.1-1.4-2c0.3-5.6-2.5-10.4-3.7-11.4
					c-0.4,0.3-1.4,2-1.8,3.5c-0.3,1-1.1,1.6-2.1,1.4c-1-0.1-1.7-0.8-1.8-1.8c-0.1-2.1-1.1-5.8-5.1-6.9c-0.3,0.4-0.7,1.1-0.7,1.1
					c-0.4,1-1.6,3.2-3.5,2.4l-1.1-0.7c-1.1-0.8-4.2-3-6.3-2.5c-0.4,0.1-1,0.3-1.4,1.3c-1.3,2.3-0.4,3.7,2.1,5.8l1.8,3
					c0,1.7-1.6,2.5-2.5,3.1c-0.7,0.3-1.6,0.8-1.6,1.1c0,1.7,1.1,2.4,4.8,3l3,1.1c1.4,1.8-0.4,3.5-1.3,4.4c0,0-1.3,1.4-1.3,0.8
					c1,2.7,3.7,3.5,6.5,3.8c0.1,0,0.3,0,0.4,0l0,0c1,0.1,1.8,0.1,2.8,0.1c1.8,0,3.7,0,3.9,2l-1.3,3.2c0,0-0.7,1.3-1,1.3
					c1.4,2.3,6.6,2.1,14.1-0.4c-0.3-1.1-2.3-3.7-4.5-6.1c-0.1-0.1-0.4-0.3-0.6-0.4c-2.1-1.4-4.8-3.1-7.3-5.1c0,0-6.1-5.2-5.2-6.6
					C124.4,139,130.8,143.6,130.8,143.6z"/>
				<path class="st0" d="M177.2,142.5c-0.1,0-0.1-0.1-0.1-0.1c0.1,3.5,1,8.5,4.1,13.7c0,0,6.2,10.4,6.5,10.9c1.1-3.8,2.5-9.6,2.7-12
					c0-0.7,0-1.7,0-2.7c0-2.5-0.3-5.8-1-9l-1,0.1C184.5,144.2,182.4,144.5,177.2,142.5z"/>
				<path class="st0" d="M195.5,99.1c-0.8-2.3-2.1-5.5-2.1-8.6c0-1.3,0.3-2.4,0.7-3.5c-0.1-1-1-3.1-2.5-3.8
					c-0.3-0.1-0.6-0.1-1.8,1.4c-0.8,1-2.1,2.5-3.9,2l-3-2.8c-2.5-3.5-5.4-6.8-8.7-6.1c-2.5,0.6-2.8,3.7-2.5,8.5
					c0.1,2.1,0.3,3.8-1.8,4.8c-1.3,0.4-2.5,1.1-2.7,2.3c-0.3,2.5,1.3,4.2,3,5.5c0.3,0.1,0.4,0.4,0.7,0.6c3.8,1,7.3,5.8,8.9,9.3
					c1.8-1.3,5.1-3.2,7.6-1.1c2.8,2.3,4.2,8.5,4.7,11.4l0,0c0.7-0.1,1.7-0.3,2.7-0.1c-1.6-3-3.7-7.8-3.7-12c0-2.1,0.6-4.1,1.8-5.6
					C193.7,99.8,194.7,99.3,195.5,99.1z"/>
				<path class="st0" d="M191.9,134.3c2.1-7.5,2.5-11.4,2.5-11.8l-1.7,0.1c-1.3,0.3-2.7,0.4-3.7-0.4c-0.4-0.4-1-1.4-1-2
					c0-2-1.6-8.5-3.4-9.9c-0.6-0.1-2.4,1.1-3,1.4c-1.3,0.8-2.4,1.6-3.5,1.1c-0.6-0.1-1.3-0.8-1.4-1.4c-1.3-3.9-5.6-9-7.3-8.6
					c-2,0.4-2,3.1-2,3.2c0,0.8-0.6,1.6-1.4,1.8c-0.8,0.3-1.7,0-2.3-0.6c-0.4-0.6-2.3-2.3-5.1,0c-3.1,2.3,0.1,6.8,0.3,6.9
					c0.3,0.4,0.4,1,0.4,1.6c-0.1,0.6-0.4,1-0.8,1.3c-1.1,0.7-2.7,2.4-2.7,3.5c0,1.8,2.3,2.5,6.1,3.2c2.1,0.4,3.8,0.7,4.1,2.5
					c0.3,1.4-0.7,2.3-1.3,3c-1,0.8-1.8,1.8-0.8,4.8c0.6,1.4,1.3,1.7,1.4,1.8c1.8,0.8,5.1-0.6,7.1-1.4l3.7-0.8c0.6-0.1,0.7-0.4,1.1,0
					c0.4,0.4,0.3,0.6,0.3,1.1c0,0,0,2.4-0.1,2.8l1.6,1c4.1,1.7,5.4,1.4,9,0.7l0.6-0.1c-0.3-0.7-0.4-1.3-0.7-2
					c-0.1-0.3-0.1-0.4-0.3-0.7c-1.1-2.1-3-5.1-5.6-7.5c-3.9-3.4-9.5-7.2-8.9-8.3c0.6-1.1,6.8,2.4,11.4,5.8c2.7,2,4.7,4.4,5.1,4.8
					C190,132.9,191,133.8,191.9,134.3z"/>
				<path class="st0" d="M190.2,248.7c0.1-0.1,0.4-0.3,0.7-0.4c-0.1-1.4-0.6-3.5-1.8-4.8c-0.7-0.7-1.6-1.1-2.8-1.1
					c-2.8,0-4.7,2.4-5.8,4.7c0.7-0.1,1.6-0.1,2.4-0.1C186.4,247,188.8,248,190.2,248.7z"/>
				<path class="st0" d="M235.6,255.3c-2-2.8-5.4-4.5-8.7-4.5c-3.8,0-5.2,1.6-5.4,1.7c-0.7,0.8-2,1-2.8,0.3
					c-0.1-0.1-2.3-1.7-6.1-1.7c-2,0-3.4,0.3-4.4,0.7c0.4,0.4,0.8,0.8,1.1,1.3l8.6,12.6c2,2.8,5.4,4.5,8.7,4.5c3.8,0,5.2-1.6,5.4-1.7
					c0.7-0.8,2-1,2.8-0.3c0.1,0,2.3,1.7,6.1,1.7c2.1,0,3.5-0.4,4.5-0.7c-0.4-0.4-1-0.8-1.3-1.3C244.2,267.9,235.4,255.2,235.6,255.3
					z"/>
				<path class="st0" d="M152.5,247c0.4,0,0.8-0.1,1.3-0.1c3.4,0,5.8,1,7.2,1.8c0.7-0.6,2-1.1,3.5-1.6c0-0.7-0.1-1.6,0-2.4
					C161.7,244.5,156.2,244.3,152.5,247z"/>
				<path class="st0" d="M108.6,176.4c-0.3-1.1,4.2-4.9,6.3-6.5c3.7-2.8,6.3-4.7,11.3-6.2c-1.3-0.6-2.3-1.6-3-2.7
					c-0.3-0.4-0.4-1-0.4-1.4c0-1,0.6-2,1.1-3c-0.7,0-1.6,0-2.4-0.1c-0.7-0.1-1.8,0-2.5,0.7l1,2.4c0.7,1.1,1.1,2,0.7,3.1
					c-0.1,0.6-0.7,1.1-1.3,1.3c-1,0.4-1.7,0-2.5-0.6c-1.7-1-6.5-3.5-9.6-1.8c0,0-0.6,0.4-0.7,0.4c0.1,0.1,1,1.1,1,1.1
					c0.4,0.4,1.6,1.4,1.6,2.7c0,0.4-0.1,1-0.6,1.4c-1,1.1-2.3,0.8-3.5,0.7c-2.4-0.4-4.5-0.6-6.3,1.8c-1.6,2.1-1,3,0,4.2
					c0.7,0.8,1.8,2.3,0.8,4.1l-1.8,2c-3.4,3.2-5.1,5.5-3.2,8c1,0.6,5.5-1.6,7.2-2.4l4.5-1.7c3.1-0.1,3.8,2.5,4.1,3.7
					c0.4,1.6,0.4,1.6,2.1,1.3c4.2-0.8,5.4-3.9,6.5-7.2c0.8-2.1,1.6-4.2,3.2-5.5c1-0.8,2-0.7,2.5-0.6c1.4,0.3,2.1,1.7,2.5,2.8
					c0,0,0.1,0.1,0.1,0.3c1.6-1.6,3.7-6.2,5.2-11.4c0-0.3,0.1-0.4,0.3-0.6c-2.3,0.4-5.1,1.1-6.6,1.8
					C121.3,170.1,108.9,177.3,108.6,176.4z"/>
				<path class="st0" d="M103.3,163.4c-0.3-0.6-0.6-1-0.6-1.7c0-0.1,0-0.3,0-0.4c0.1-1,0.8-2,2-2.7c-1.7-0.6-2.8-1.6-3.5-2.1
					c-2.1-2.1-3-4.9-2.3-6.9c-1.3-0.7-3-1.8-4.7-3.5c-0.1,0-0.1,0-0.3-0.1c-1.8-1.4-4.9-0.8-6.3-0.1c-0.3,0.4-0.1,2.3-0.1,3.1
					c0.1,2.1,0.1,4.4-1.4,5.5c-1.7,1.3-3.5,0-5.4-1.1c-2.4-1.6-4.2-2.7-5.6-2l0.3,2.3l-0.1,4.5l-3.4,1.8c-1.3,0.4-3,0.8-3.4,1.7
					c-0.3,0.4-0.1,1.3,0.1,1.8c0.7,2.1,2.5,2.5,6.2,2.3l3.9,0.8l1.1,3.2c0.1,1.4,0.3,2.3,1.1,3c2.4,2.1,7.3-2,9.2-3.5l2.7-1.4
					c0.7-0.3,0.8,0.4,1.4,0.8l0.6,0.4c0.3-0.6,0.6-1.1,1-1.8C97.9,163.8,100.9,163.4,103.3,163.4z"/>
				<path class="st0" d="M299.3,141.9l-2-0.4c-1.3-0.7-1.7-2-0.8-3.8c0.4-1.1,0.8-2.1-0.6-3.7c-2-2-7.2,1.3-9.3,2.7
					c-1.7,1.1-2.7,1.7-3.8,1.1c-1.1-0.4-1.4-1.6-1.7-2.5c-0.3-1.3-0.7-2-1.3-2.3c-0.1,0.1-0.6,0.4-0.6,0.4l-0.1,0.6
					c-0.4,1.6-1.6,4.5-4.5,7.2c5.6,0.6,13.8,2.1,13.8,3.5c0,1.8-14-0.6-17.6-0.3c-0.8,0-1.6,0.1-2.3,0.3c-1,0.3-2.1,0.6-3.2,0.8
					c0.4,1,1.1,2.1,1.3,2.1l2.5-0.4c2.7-0.6,6.1-1.3,8.3,0.4c2.3,1.8,2.8,3.5,2.8,4.9c0,1.3-0.4,2.3-0.8,3c0,0,0,0.1-0.1,0.3
					c0.8,0.4,2.7,1.1,3.9,2.7c0.1-0.3,0.4-0.7,0.6-1.6l0.8-1.8c1.1-1.1,2.5-0.6,4.4,0.3c1.4,0.6,4.5,2.1,5.6,1.6
					c0.7-0.4,1-1.7,1.1-3.2c0.1-1.4,0.3-2.7,1.4-3.4l3.4-0.1c1.6,0.3,4.2,0.8,5.6-0.1c0.6-0.4,1-1.3,1.3-2.4
					C307.9,144.5,305.7,142.8,299.3,141.9z"/>
				<path class="st0" d="M83,150c0,0,0.3,0.1,0.4,0.3c0-0.6,0-1.1,0-1.1c0-0.6,0-1.1,0-1.7c0-1.8,0.3-3.8,1.8-4.8
					c-0.8-0.1-1.7-0.3-2.5-0.4c-3.5-0.4-14.5-0.6-14.5-2c0-1.7,12.4-2.3,16.6-1.7c1.8,0.3,3.7,0.8,5.5,1.4l-1.3-3.2
					c0,0-0.6-1.8-0.7-2.1c-0.1-0.1-0.3-0.6-0.4-0.8l-0.1-0.1c-2.7-3.8-5.9-6.8-7.5-6.5c-0.8,0.1-1.1,0.6-1.4,2.1
					c-0.3,1-0.6,2.5-2.3,2.8c-1.3,0.3-2.3-0.6-3.8-1.8c-1.8-1.6-4.9-4.2-7.2-3.7c-0.8,0.1-1.1,0.3-0.7,3.2c0.3,1.6,0.6,3.7-1.3,4.7
					l-4.1-0.1c-1.7-0.4-4.1-0.8-5.2-0.1c-0.1,0.1-0.7,0.4-1,1.8c-0.6,3,2,4.1,6.3,5.4l3,1.4c1.3,1.6,0,3.1-0.7,4.1
					c-1.7,2.1-1.4,2.5-0.7,3.1c2.4,2.1,4.4,1,7.1-0.7l2.8-1.3c0.7,0,1.3,0,1.8,0.1C76.9,145.9,80.7,148.4,83,150z"/>
				<path class="st0" d="M223.6,160.8c-4.8-0.4-7.6,1.1-7.9,1.1c-0.7,0.4-1.6,0.3-2.1-0.1c-0.6-0.4-0.8-1-0.8-1.7c0-0.1,0-0.3,0-0.3
					c0.1-1.1,1-3.1,2-5.2c-4.7,4.8-9.7,11.1-11.8,14.1c-0.6,0.8-1.7,1.1-2.5,0.6c-0.7-0.4-1-1-1-1.8c0-0.3,0-0.4,0.1-0.7
					c0.7-1.8,0.8-5.1,1-8.5c0.3-4.8,0.4-10.3,2.3-15c1.8-4.8,3.9-8.7,6.3-12c-1.6,0.7-3.2,1.4-4.4,2.1c-3.7,1.8-5.1,2.5-6.2,1
					l-0.8-4.2c0-0.4,0-1-0.1-1.7c-0.4,2.1-1.1,4.8-2.1,8.2c-0.3,1.1-1.4,1.7-2.5,1.4c-0.4-0.1-0.7-0.4-1-0.7c0,0,0,0-0.1,0
					c2,4.9,2.7,10.4,2.7,14.5c0,1,0,2-0.1,2.8c0,0.1-2.5,17.5-5.6,18.3c-0.8,0.3-1.8-0.1-2.3-0.8l-3-4.9l-5.8-9.6
					c-4.9-8.2-4.8-15.7-4.8-19.3V138c-2.7,1.1-6.3,2.5-9.5,1.1c-0.3-0.1-0.4-0.3-0.7-0.4c-1.1,2.4-3.1,4.4-4.8,5.6l1,0.3
					c4.1,1.1,14.8,4.2,17.9,22.4c0.8,4.9,1.7,10.7,1.7,15.2c0,3.8-0.6,6.8-2,8c-0.6,0.4-1.6,0.8-2.3,0.6c-1.3-0.3-19.9-13-19.5-31
					c0.3-12.3-4.1-15.5-5.2-15.7h-0.1c0.3,2,0.6,4.1,0.6,6.1c0.1,2.8-1.1,4.1-2.3,4.8c-1.1,0.6-2.4,0.4-3.8,0.1c0.6,1.1,1,2.3,1,3.2
					c0,0.3,0,0.4-0.1,0.7c-0.3,1.3-1.1,2.1-2.4,2.5c-2.3,0.7-4.2,1.3-6.2,1.7c10,3.5,18.3,17.1,19.6,20.5c0.6,1.6,4.5,7.8,7.5,12.6
					c6.8,10.9,6.9,11.3,6.8,12.4c-1.8,12.6-7.8,22-16.6,26.5l-3.2,1.6c-5.9,3-14.5,7.3-19.7,10.9c0.1,0.1,0.4,0.1,0.6,0.3
					c1.3-0.8,3.4-2,7.1-2c2.5,0,5.1,0.7,7.2,2c0-0.3,0.1-0.6,0.3-0.7c4.2-8,14.2-7.8,18.6-7.2c0.3-1.4,0.7-2.7,1.4-3.9
					c0.7-1.4,1.6-2.8,2.5-4.4c2.5-4.4,6.3-13.8,7.3-13.8c1.1,0,0.8,7.6-3.9,15.8c-0.8,1.6-1.7,3-2.4,4.2c-0.7,1.4-1.1,3.1-1.3,4.7
					c0,0.1,0,0.1,0,0.3l0,0c-0.1,1.1-0.1,2.3,0,3.1c2.4,0.1,4.8,0.8,6.9,2c0.1,0,0.3-0.1,0.3-0.1c0-0.1,0-0.3,0-0.4
					c2.1-6.2,6.1-9.7,10.6-9.7c2.3,0,4.2,0.8,5.6,2.3c1.8,1.8,2.5,4.4,2.8,6.2c0.7-0.1,1.6-0.1,2.5-0.1c2.7,0,5.2,0.8,7.5,2.1
					c1.3-0.8,3.8-2,7.9-2c2.7,0,4.8,0.7,6.2,1.3l-0.1-0.7c-1.4-3.9-4.7-5.2-8.6-6.9c-5.4-2.3-12-5.1-15.8-15.1
					c-1.8-4.9-2.7-11.3-3.1-17.1c-0.3-3.9,0.6-16.6,1.6-16.6s2.3,12.4,2.5,16.4c0.3,5.5,1.1,11.4,2.8,15.9
					c3.2,8.5,8.6,10.7,13.7,12.8c3.9,1.7,8,3.4,10.3,7.9c0.1,0.1,0.6,1.3,1,2.4c1.1-0.3,2.3-0.6,3.8-0.6c2.5,0,5.1,0.8,7.3,2.1
					c1-0.6,2.8-1.4,5.6-1.7c-1.8-2.1-5.4-3.7-15-7.6l-1.1,0.1c-14.4-6.1-17.8-12.1-20.3-16.6l-0.3-0.6c-2.5-4.5-7.8-29.2,2.8-45.3
					c6.3-9.7,14.4-13.7,18.3-15.1C223.6,161,223.6,161,223.6,160.8L223.6,160.8z"/>
				<path class="st0" d="M277.6,159.6c-1.1-0.4-2.1-1-2.5-2.1l0.6-3.5c0.6-1.3,0.7-1.7-0.8-3c-0.7-0.6-3.5,0-4.9,0.4l-4.7,0.3
					c-1.1-0.4-1.8-1.3-2.5-2.1c-0.3,0.1-0.4,0.3-0.8,0.4c-3.7,1.6-11.3,2-17.5-1.6c-2.4,2-5.9,2.4-8.2,2.7c0,0-0.3,0-0.4,0
					c0.3,0.7,0.8,1.8,1.1,2.5c5.4-1.1,9.6-0.8,11.4,0.6c1.1,0.8,1.4,2,1.4,3.1c0,0.4-0.1,0.8-0.3,1.3c1.1,0.1,2.7,0.4,2.7,0.4
					c4.9,0.6,8,1,9.3,2.7c0.7,0.8,0.8,1.7,0.8,2.5c0,1.3-0.6,2.3-1,3.1c0.6,0.1,1.3,0.4,1.3,0.4c1.1,0.3,2.3,0.7,3.2,1.1l1.6,0.1
					c1.4,0.3,2.8,0.4,3.8-0.1c0.3-0.1,0.3-0.3,0.4-1.3l1.1-2.8l3.5-0.6c2.4,0.3,3.1,0.1,3.5-0.7C281,161.4,280.3,160.7,277.6,159.6z
					"/>
				<path class="st0" d="M265.8,180l-2.1-2.5c0-0.3-0.1-0.4-0.1-0.7c0-1.3,1-2.3,1.6-3c0,0,0.6-0.6,0.7-0.6c-0.6-0.6-3-1.3-4.1-1.6
					c-2.3-0.7-3.8-1.1-4.4-2.4c-0.1-0.4-0.3-0.7-0.3-1.1c0-0.8,0.4-1.7,0.7-2.4c0.4-0.8,0.6-1.3,0.6-1.4l0,0
					c-0.8-0.6-4.8-1.1-6.8-1.3c-4.2-0.4-6.1-0.7-6.3-2.7l0.3-2.1l0.1-0.8c-0.8-0.6-5.8-1.1-13.4,1.7c2.5,1.3,5.2,3,7.9,4.8
					c2.5,1.8,6.2,6.3,5.1,7.3c-1.1,1-5.2-2.5-7.5-4.1c-2.7-2-7.3-3.9-10.3-4.9c0.6,4.5,1.8,10.3,3.4,11.8c0.4-0.6,1.7-1.8,3.4-1.1
					c1.3,0.4,1.7,1.7,2.7,4.1c1,2.3,3,7.2,4.9,7.5c1.8,0.3,2.1-0.3,2.5-1.3c0.3-0.6,1.1-2.1,2.8-1.8l2.7,2c1.3,1.3,3.2,3.4,4.9,3.4
					c1.4,0,2-0.8,2.7-1.6c0.6-0.7,1.4-1.7,2.7-1.7l1.8,0.4c2.5,0.8,4.1,1,5.1-0.6c0.3-0.4,0.4-0.7,0.4-1
					C267.7,181.6,267.2,181,265.8,180z"/>
				<path class="st0" d="M203.3,23.2c1.6-0.4,3.4-0.4,4.8,1.6c1.4,2.3,2,4.4,2,6.3c0,3.9-2.1,7.2-3.8,9.3c1.6,0.3,3.2,1,3.9,3.1
					c0.1,0.6,0.3,1.1,0.3,1.7c0,2-1,4.7-2,6.8c1.7-0.7,3.2-0.6,4.4-0.4C213,51.3,213,51,213,51c1.1-3.2,3-8.5,7.3-10.2h2.5
					c0-0.6,0-1.3-0.3-1.7c-0.1-0.1-0.3-0.4-0.8-0.4c-0.8,0-1.6-0.7-1.8-1.6c-0.3-0.8,0.1-1.7,0.8-2.3c2.5-1.6,6.6-5.4,5.6-7.2
					c-1.3-2.4-2.8-2.7-4.1-2.8l-2-0.7c-1-0.8-0.8-2.1-0.7-3.7c0.4-3.8,0.3-5.9-2-6.5c-2.5-0.6-4.4,1.6-6.3,4.2
					c-1.3,1.7-2.3,3.1-4.1,2.7l-2.4-1.6c-0.7-0.7-1.3-1.1-1.8-1.4c0.1,1,0.3,2.1,0.3,3.1C203.6,22.2,203.3,22.6,203.3,23.2z"/>
				<path class="st0" d="M183.5,43.6c3.2,2.3,4.2,5.1,4.2,7.8c0,3.4-1.6,6.5-2.3,8.2l0,0c0.8,0.1,1.8,0.1,1.8,0.1c0.4,0,0.8,0,1.3,0
					c0.4-1.6,2-7.2,3.1-12.6c1.3-5.4,1.8-10.4,2.7-10.6c1.6-0.1,1.6,4.1,0.8,9.6c-0.6,5.2-2.1,11.6-2.8,14.4
					c2.7-2.4,5.6-3.8,7.6-4.5c0.6-0.4,1.4-0.8,2.4-1.3c2.7-4.2,4.4-8.9,4.1-9.9c-0.3-0.6-1.1-0.7-2.5-0.7c-1,0-2.4,0-3.1-1.3
					c-0.7-1.3,0.1-2.3,1.1-3.4c3-3.7,5.8-8,2.7-12.6c-0.4-0.1-1.6,0.6-2,0.7c-0.7,0.4-2,1.1-3.2,0.1c-0.6-0.6-0.8-1.7-0.6-2.4
					c0.7-1.7,1-6.2-0.6-8.9c-0.7-1.3-1.8-1.8-3.2-2.1c-1.7-0.3-3.1,4.2-3.8,6.5c-0.7,2.4-1.3,3.8-2.4,4.4l-3.9,0.1
					c-1.1-0.3-2-0.4-2.5-0.1c-2,1.1,0.6,6.1,2.1,8.9c1.4,2.7,2.1,4.1,1.4,5.5c-0.3,0.6-1.3,1.1-2,1.1c-1.6,0-3.5,0.4-4.4,1.6
					c-0.3,0.3-0.4,0.7-0.4,1.1C180.3,42.8,181.9,42.4,183.5,43.6z"/>
				<path class="st0" d="M224,46.6c-0.3-0.7-0.7-1.8-1-2.1l-1,0.1c-2.5,1-4.1,5.4-4.9,7.8c-0.7,2-1.3,3.4-2.8,3.4l-1.1-0.1
					c-1.1-0.3-2.3-0.6-3.5,0.8c0.8,1.1,1.3,2.3,1.4,3c0,0,0.1,0.4,0.3,0.7c1.3,2.5,2,5.1,2.1,7.8c1-1.3,2.3-2.8,3.7-4.4
					c3.7-3.5,8-6.6,9-5.5c0.7,0.8-2.8,4.2-5.9,7.8c-1,1.1-2,2.3-2.8,3.4c1.3-0.4,2.5-0.4,3.7,0.3c2.7,1.4,2.8,4.8,3.1,7.2
					c0,0,0,0.6,0.1,1c0.3,0,0.6,0,0.6,0c0.6,0,1.1,0.1,1.7,0.3c1.1-0.6,3.4-2.1,3.9-3.7c0.3-1,0-1.6-0.7-2.4
					c-0.4-0.6-1.1-1.4-0.8-2.5c0.1-0.6,1-1.4,1.6-1.6c2-0.8,3.4-1.6,4.7-2.4c0.1-0.1,0.4-0.3,0.7-0.4c2.5-1.7,3.7-3.1,3.7-3.9
					c0.1-1.4-0.4-1.8-1.4-2.5c-0.8-0.6-2-1.4-2-3.1l2.4-3.5c1.4-1.3,3.5-3.2,3.7-4.9c0-0.7-0.4-1.4-1.1-2.3
					c-1.3-1.3-2.4-1.8-3.5-1.8c-2.4,0-4.8,2.7-6.3,4.4l-3.7,2.5C225.2,50,224.4,48,224,46.6z"/>
				<path class="st0" d="M242.4,70.8C243,70.5,244,70,244,70c2.3-1.3,5.8-3.4,9.3-2.3c0.8-0.7,2.4-1.8,4.2-2.5
					c3.8-1.7,8.2-3.4,8.9-2.5c0.6,0.7-3.2,3.2-6.8,5.4c-1.1,0.7-2.1,1.4-3,2c1.6,1.6,2.3,3.1,2.4,4.5c2.1,0.1,3.7,1.4,4.8,2.3
					c0,0,0.3,0.3,0.7,0.4c0.4-0.4,1.1-1.3,1.1-1.3c2.1-2.7,5.8-6.9,11-6.1c-0.1-1.1-0.6-2.7-1.1-3.7c-0.3-0.4-0.3-1-0.1-1.6
					c0.1-0.6,0.6-1,1-1.1c1.4-0.7,4.5-3,4.9-4.8c0.1-0.4,0.1-0.8-0.6-1.6c-1.8-2.3-4.7-1.6-7.8-0.6l-3.2,0.4l-1.8-2.1
					c-0.4-1-0.8-1.8-2.5-2.3c-1.6-0.4-4.5,2.3-6.1,3.7l-4.1,2l-3.1-2c0,0-1.6-1.3-1.6-1.4c-1,0.3-3.8,3.5-4.4,4.5l-1.7,1.7l-1.1,0.1
					c-0.1,1.8-1.6,3.7-3.8,5.5C240.7,68,241.7,69.4,242.4,70.8z"/>
				<path class="st0" d="M86.9,117.8c1.7,2.3,0.1,5.2-1.4,7.2c1,0.7,2,1.7,2.8,2.5v-0.1c2-3.1,5.2-3.1,6.9-3.2
					c0.4-0.4,1.1-1,2.1-1.6c0.1-0.1,0.1-0.4,0.1-0.7c0-0.4-0.1-0.7-0.1-1.1c-0.3-0.1-0.4-0.3-0.4-0.3c-1.7-1-5.2-3.2-5.2-7.3
					c0-0.6,0.1-1.1,0.3-1.8c0.7-2.7,2.4-4.1,4.2-4.9c-0.6-1.3-0.8-2.5-1.1-3.8c0,0-0.4-1.6-0.4-2.1c0-0.1,0-0.1,0-0.1
					c-0.1,0-2.5,0.7-2.5,0.7c-2.1,0.8-4.4,1.7-5.9,0.3L85,99.8l-3-3.9c-1.8-1.7-4.8-3.2-6.8-2.4c-0.8,0.3-1,1.1-0.7,3.4
					c0.1,1.3,0.3,2.7-1.1,3.5h-2.8c-2.8-0.8-4.5-0.8-5.6,1.4c-0.7,1.6-0.8,2.8-0.3,3.9c1.4,2.7,6.6,4.1,8.5,4.4
					c0.8,0.1,1.4,0.7,1.7,1.6c0.1,0.8-0.1,1.7-0.8,2.1c-0.6,0.4-2,1.7-2.1,2.8l0.4,1.3c0.7,0.8,2,0.4,4.8-0.7
					C80,115.8,84.1,114.2,86.9,117.8z"/>
				<path class="st0" d="M166.5,42.1c-2,0.6-1.8,4.2-1.6,7.8c0.3,2.3,0.3,3.5-0.6,4.5c-1,1-2.4,0.8-3.2,0.7c-1.3-0.1-1.4-0.3-2,0.8
					c-0.4,1,1,3.4,4.2,7.2c1.3,1.6,1.8,2.1,1.7,3.2c0,0.3-0.3,1-1.3,1.8c0.7,1,1.3,2.1,2,3.4c0.7,0.1,1.4,0.4,2.3,1.3
					c0.7,0.7,1.1,1.7,1.7,3c0.7-0.8,1.7-1.4,2.8-1.8c-0.4-1.4-0.8-3.4-1.1-5.4c-0.7-4.9-0.8-10.3,0-10.6c1.4-0.4,2.5,5.5,3.7,10.4
					c0.6,2.1,1.1,4.1,1.4,5.4c2.1,0.4,3.8,1.6,5.4,3c0-2,0.4-4.1,1.7-5.8c1-1.1,2.4-2,3.9-2.4c0.4-1.7,1-3.1,1.8-4.4l-2.3-0.1
					c-2.3,0-5.6-0.1-6.2-3l0.8-3c2.3-4.9,3.1-8.5-0.6-11l-1.6,1.3c-0.8,0.8-1.8,2-3.2,1.6l-2.5-2.3
					C172.3,45.3,169.3,41.4,166.5,42.1z"/>
				<path class="st0" d="M139.7,58.3l-2.4,3.8c-0.8,0.7-1.4,1.3-1.4,1.8c0,0.4,0.8,1,5.8,1.8c-0.3-2.1-0.7-5.5,2.3-6.8
					c2-0.8,3.7-0.3,5.2,0.6c-0.6-1.3-1.4-3-2.4-4.5c-1.3-2.1-5.1-6.5-3.8-7.9s6.2,4.1,7.8,6.8c2,3.2,3,6.2,3.4,7.6
					c1.1,0.1,2.4,0.6,3.8,1.3c-1.6-2-2.8-4.2-2.8-6.5c0-0.7,0.1-1.4,0.4-2c1.4-3.1,3.7-3.2,5.5-3.1c0-0.4,0-0.8,0-0.8
					c-0.1-1.1-0.3-2.4-0.3-3.8c0-0.8,0-1.8,0.3-2.7c-1.7-1-2.7-0.4-3.7,0.3c-0.6,0.4-1.4,1-2.5,0.6c-1.3-0.6-1.4-1.7-1.4-3.5
					c-0.1-2.7-0.3-10-3.7-10.4c-0.8-0.1-1.8,1.7-2.4,2.8c-0.8,1.6-1.7,3-3.2,3.1c-1.3,0.1-2.1-0.8-3.5-2.3
					c-3.9-4.4-6.9-6.3-10.6-3.8c-2.7,1.8-0.8,6.3,1.4,10.3l0.8,3.1c-0.3,1.1-1.3,1.6-2.3,2c-1.6,0.7-2.8,1.3-3,2.5
					c-0.4,3.5,3.2,4.9,7.8,6.2C137.6,55.3,139.8,56,139.7,58.3z"/>
				<path class="st0" d="M87.4,96.5L87.4,96.5c-1-1.3-2.8-3.5-2.8-3.5l-0.1-0.1c1-0.8,3-2.1,3.8-2.3c0.8,0,2-0.7,2.1-1.6
					c0.4-1.7-1-2.3-2.5-3.1c-8.2-3.8-9.3-6.1-8.9-7.2c0.3-0.7,1.7-1.4,2.7-1.8l2.3-1.4c0.8-1,0.7-2.3,0.3-4.2c-0.8-4.4-1-7.2,1.3-8
					c1-0.4,2.1,0.4,3.8,2.7l3.1,2.5c2.3,0.6,3.5-1.7,4.4-3.4c0.4-0.7,1.1-2.3,1.6-2.4c1.6,0,2.4,5.2,2.7,7.3
					c0.4,2.7,0.7,4.4,2.3,4.8c2.1,0.7,3.5-1,4.4-2c0.7-0.8,1.1-1.3,1.4-1.1c1.4,0.4,1.7,4.1,1.8,6.3c0.1,2.5,0.3,4.2,1.6,5.2
					c0.7,0.6,2.7,1.6,5.4-0.4c2.1,2.1,5.5,2.3,7.6,2.4c0,0,1.3,0.1,1.8,0.1v0.2c0,1-0.4,2-0.6,2.5c-7.1-2.5-12.6-1.3-15.1-0.6
					l-1.1,0.3h-1.4l-4.1,1.6c-0.1,0.1-0.1,0.3-0.1,0.4c-2-1.4-4.7-3.7-6.6-6.2c-3.2-4.1-4.8-8.9-5.9-8.5c-2.4,1,0.7,7.3,2.4,9.9
					c2.5,3.5,7.3,8,10.3,9.7v0.1c0,1.7,0.1,3.5,0.7,5.4c-2.5,1-3.2,3.5-3.7,4.8c0,0,0,0.1-0.1,0.3c-0.8,0-1.4,0-1.4,0
					c-0.1,0-0.1,0-0.3,0c-0.6-0.7-1-2.7-1.1-3.7c-0.4-2-0.8-3.8-2.1-4.8c-1.7-1.3-3.9-0.4-6.2,0.4c0,0-2,0.6-2.3,0.7L87.4,96.5z"/>
				<path class="st0" d="M121.5,72l-1.1,3.7l-0.8,2.3c0,2.5,1.4,3,5.6,3.2c2.3,0.1,4.8,0.3,5.4,2.5c0.3,1.3,0.1,2.4,0,3.5
					c0.3,0,0.6,0,0.8,0.1c3,0.7,5.5,3.2,7.2,6.8c0.6-0.3,1.1-0.7,1.7-1h4.1c2.8,1.3,4.9,4.9,5.9,7.2c2-0.8,5.9-2,9,2.1
					c1.7-0.4,3.2-0.1,4.5,0.4c0.4-1,1.1-2,2-2.8c-1.3-1.3-2.5-3.1-2.8-5.8c-4.1,1.8-9,1.8-14.2-0.1c-3.7-1.4-6.6-4.5-7.2-7.2
					c-0.3-1.4,0-2.7,0.8-3.7l0,0l0,0c-3.5-6.3-3.1-10.9-2-13.7c-4.2-0.6-8.3-1.7-8.7-5.1c-0.3,0-0.6,0.1-0.8,0.1l-3.5-1.6
					c-3.8-2.5-7.3-4.2-10.4-1c-1.6,1.6-0.6,3.2,2.1,6.3C119.4,68.5,121.5,72,121.5,72z"/>
				<path class="st0" d="M150.3,26.7c6.1,0.8,6.8,8.6,6.9,13c1.4-0.6,3.2-0.7,5.4,0.4c0.7-0.8,1.6-1.6,2.8-1.8
					c1.8-0.6,3.7-0.1,5.2,0.7c0.7-4.4,1-10.7,0.3-11.8c-0.3,0-1.3,0.7-1.8,1.4c-0.6,0.7-1.6,0.8-2.4,0.6c-0.8-0.4-1.3-1.1-1.1-2.1
					c0.4-3.9,0-9.7-2-10.3c-1.7-0.6-2-0.1-2.3,0.6c-1.1,2-2.4,1.7-3.1,1.6l-2.1-2c-1.7-2.1-5.5-6.9-8.2-5.6c-2.1,1-0.3,5.9,0.8,8.5
					c0.8,2.3,1.3,3.4,0.6,4.5s-2,1.3-3.1,1.3c-2.1,0.1-2.5,0.4-2.8,1.4c-0.3,1.3,0.4,2.5,1.3,3.5C145.7,28.3,147.4,26.3,150.3,26.7z
					"/>
				<path class="st0" d="M189.6,63.9l-0.3-0.4C189.3,63.7,189.5,63.7,189.6,63.9C189.6,63.8,189.6,63.8,189.6,63.9z"/>
				<path class="st0" d="M251.2,122.3L251.2,122.3c-0.1-0.3-0.3-0.7-0.3-0.7C251.1,122,251.2,122.2,251.2,122.3z"/>
				<path class="st1" d="M215.7,669.4c0.3,1.6-4.7,2.3-7.5,2.1c-4.1-0.1-8.2-0.7-7.9-2.5s3.9-1.4,7.9-1.1
					C210.9,668,215.4,667.9,215.7,669.4L215.7,669.4z"/>
				<path class="st0" d="M101.7,512.2C101.7,512.2,101.6,512.2,101.7,512.2h-2c-0.6,0-1.1-0.3-1.6-0.7c0,0-4.9-5.8-11.6-5.8
					c-4.8,0-8.9,1.8-12.8,3.5c-3.5,1.6-7.1,3-10.6,3h-10c-1.1,0-2-0.8-2-2v-56.7c-1.7,1.1-3.7,2.4-4.5,3c0,2,0,53.9,0,57.5
					c3.7,0,45.1,0,45.1,0c0.6,0,1.1,0.3,1.4,0.6c0,0,3.2,3.2,7.6,3.7h2c4.4-0.6,7.3-3.7,7.5-3.7c0.4-0.4,0.8-0.6,1.4-0.6
					c0,0,41.5,0,45.1,0c0-3.7,0-55.4,0-57.5c-0.7-0.6-2.8-1.8-4.5-3v56.7c0,1.1-0.8,2-2,2H140c-3.5,0-6.9-1.4-10.6-3
					c-3.9-1.7-8-3.5-12.8-3.5c-6.6,0-11.6,5.8-11.6,5.8c-0.4,0.4-1,0.7-1.6,0.7H101.7L101.7,512.2z"/>
				<path class="st0" d="M160.8,516c0,1.1-0.8,2-2,2c0,0-44.9,0-46.4,0c-1.3,1.1-4.7,3.7-9.2,4.2h-2.8c-4.8-0.4-8.2-3.1-9.5-4.2
					c-1.6,0-46.4,0-46.4,0c-1.1,0-2-0.8-2-2v-58.8c-1.3,0-3,0-4.1,0c0,3.7,0,61.6,0,65.3c3.7,0,52.2,0,52.2,0c0.6,0,1.1,0.3,1.6,0.7
					c0,0,2.4,2.7,6.6,3.5c1.6,0.3,4.7,0.1,5.9,0c4.2-0.8,6.5-3.4,6.5-3.4c0.4-0.4,1-0.7,1.6-0.7c0,0,48.5,0,52.2,0
					c0-3.7,0-61.6,0-65.3c-1.1,0-2.8,0-4.1,0L160.8,516L160.8,516z"/>
				<path class="st0" d="M85.4,443.1c-7.1,0-10.9,2.7-14.1,5.1c-2.5,1.8-4.9,3.5-8.2,3.5c0,0-5.4,0-7.9,0c0,3.7,0,52.8,0,56.4
					c2.5,0,8.2,0,8.2,0c2.7,0,5.6-1.3,8.9-2.7c4.2-1.8,8.9-3.8,14.4-3.8c6.2,0,10.9,3.5,13.1,5.6c0-5.2,0-57,0-57
					C99.6,450,97.5,443.1,85.4,443.1z M91.9,490.5c-0.1,0.4-0.1,0.6-0.7,0.7c-1.1-0.3-5.1-0.7-8.7,0.3l-6.2,2.5l-3.3,1.5
					c-4.5,2-8,2.3-9,2.3c-0.4,0-0.8-0.4-1-0.8c0-0.6,0.4-0.8,0.8-1c0.8,0,4.2-0.3,8.3-2.1l3.2-1.6l6.6-2.7c4.8-1.3,9.5-0.3,9.5-0.3
					C92,489.8,91.9,489.9,91.9,490.5z M91.9,478.5c-0.1,0.4-0.1,0.6-0.7,0.7c-1.1-0.3-5.1-0.7-8.7,0.3l-6.2,2.5l-3.2,1.6
					c-4.5,2-8,2.3-9,2.3c-0.4,0-0.8-0.4-1-0.8c0-0.6,0.4-0.8,0.8-1c0.8,0,4.2-0.3,8.3-2.1l3.2-1.6l6.6-2.7c4.8-1.3,9.5-0.3,9.5-0.3
					C92,477.8,91.9,477.9,91.9,478.5z M91.9,466.6c-0.1,0.4-0.1,0.6-0.7,0.7c-1.1-0.3-5.1-0.7-8.7,0.3l-6.2,2.5l-3.2,1.6
					c-4.5,2-8,2.3-9,2.3c-0.4,0-0.8-0.4-1-0.8c0-0.6,0.4-0.8,0.8-1c0.8,0,4.2-0.3,8.3-2.1l3.2-1.6l6.6-2.7c4.8-1.3,9.5-0.3,9.5-0.3
					C92,465.9,91.9,466.1,91.9,466.6z M91.9,454.6c-0.1,0.4-0.1,0.6-0.7,0.7c-1.1-0.3-5.1-0.7-8.7,0.3l-6.2,2.5l-3.2,1.6
					c-4.5,2-8,2.3-9,2.3c-0.4,0-0.8-0.4-1-0.8c0-0.6,0.4-0.8,0.8-1c0.8,0,4.2-0.3,8.3-2.1l3.2-1.6l6.6-2.7c4.8-1.3,9.5-0.3,9.5-0.3
					C92,453.9,91.9,454.1,91.9,454.6z"/>
				<path class="st0" d="M103.7,512.2h-2l0,0l0,0h-2c-0.6,0-1.1-0.3-1.6-0.7c0,0-4.9-5.8-11.6-5.8c-4.8,0-8.9,1.8-12.8,3.5
					c-3.5,1.6-7.1,3-10.6,3h-10c-1.1,0-2-0.8-2-2v-56.7c-1.7,1.1-3.7,2.4-4.5,3c0,2,0,53.9,0,57.5c3.7,0,45.1,0,45.1,0
					c0.6,0,1.1,0.3,1.4,0.6c0,0,3.2,3.2,7.6,3.7h2c4.4-0.6,7.3-3.7,7.5-3.7c0.4-0.4,0.8-0.6,1.4-0.6c0,0,41.5,0,45.1,0
					c0-3.7,0-55.4,0-57.5c-0.7-0.6-2.8-1.8-4.5-3v56.7c0,1.1-0.8,2-2,2H140c-3.5,0-6.9-1.4-10.6-3c-3.9-1.7-8-3.5-12.8-3.5
					c-6.6,0-11.6,5.8-11.6,5.8C104.8,511.9,104.3,512.2,103.7,512.2z"/>
				<path class="st0" d="M164.9,457.3c-1.1,0-2.8,0-4.1,0v58.8c0,1.1-0.8,2-2,2c0,0-44.9,0-46.4,0c-1.3,1.1-4.7,3.7-9.2,4.2h-2.8
					c-4.8-0.4-8.2-3.1-9.5-4.2c-1.6,0-46.4,0-46.4,0c-1.1,0-2-0.8-2-2v-58.8c-1.3,0-3,0-4.1,0c0,3.7,0,61.6,0,65.3
					c3.7,0,52.2,0,52.2,0c0.6,0,1.1,0.3,1.6,0.7c0,0,2.4,2.7,6.6,3.5c1.6,0.3,4.7,0.1,5.9,0c4.2-0.8,6.5-3.4,6.5-3.4
					c0.4-0.4,1-0.7,1.6-0.7c0,0,48.5,0,52.2,0C164.9,518.8,164.9,461,164.9,457.3z"/>
				<path class="st0" d="M140.2,451.8c-3.2,0-5.6-1.7-8.2-3.5c-3.2-2.4-7.1-5.1-14.1-5.1c-12.1,0-14.4,6.9-14.4,6.8
					c0,0,0,52.3,0,57.5c2.3-2.1,6.9-5.6,13.1-5.6c5.5,0,10.3,2,14.4,3.8c3.4,1.4,6.2,2.7,8.9,2.7c0,0,5.5,0,8,0c0-3.7,0-52.8,0-56.4
					C145.7,451.8,140.2,451.8,140.2,451.8z M139.4,497.7c-1,0-4.5-0.3-9-2.3l-3.2-1.6l-6.2-2.5c-3.7-1-7.5-0.6-8.7-0.3
					c-0.4,0.1-1-0.1-1-0.7c-0.1-0.4,0.3-1,0.7-1c0,0,4.8-1,9.5,0.3l6.6,2.7l3.2,1.6c4.1,1.8,7.5,2.1,8.3,2.1c0.6,0,0.8,0.4,0.8,1
					C140.2,497.2,139.8,497.7,139.4,497.7z M139.4,485.8c-1,0-4.5-0.3-9-2.3l-3.2-1.6l-6.2-2.5c-3.7-1-7.5-0.6-8.7-0.3
					c-0.4,0.1-1-0.1-1-0.7c-0.1-0.4,0.3-1,0.7-1c0,0,4.8-1,9.5,0.3l6.6,2.7l3.2,1.6c4.1,1.8,7.5,2.1,8.3,2.1c0.6,0,0.8,0.4,0.8,1
					C140.2,485.4,139.8,485.8,139.4,485.8z M139.4,473.8c-1,0-4.5-0.3-9-2.3l-3.4-1.6l-6.2-2.5c-3.7-1-7.5-0.6-8.7-0.3
					c-0.4,0.1-1-0.1-1-0.7c-0.1-0.4,0.1-1,0.7-1.1c0,0,4.7-1,9.5,0.3l6.5,2.7l3.2,1.6c4.1,1.8,7.5,2.1,8.3,2.1c0.4,0,0.8,0.4,0.8,1
					C140.2,473.5,139.8,474,139.4,473.8z M139.4,462c-1,0-4.5-0.3-9-2.3l-3.2-1.6l-6.2-2.5c-3.7-1-7.5-0.6-8.7-0.3
					c-0.6-0.1-0.8-0.3-1-0.8c-0.1-0.4,0.1-0.7,0.6-1c0,0,4.7-1,9.5,0.3l6.6,2.7l3.2,1.6c4.2,1.8,7.5,2.1,8.3,2.1
					c0.6,0,0.8,0.4,0.8,1C140.2,461.5,139.8,462,139.4,462z"/>
				<path class="st0" d="M263.7,512.2h2c0.6,0,1.1-0.3,1.6-0.7c0,0,4.9-5.8,11.6-5.8c4.8,0,8.9,1.8,12.8,3.5c3.5,1.6,7.1,3,10.6,3
					h10.2c1.1,0,2-0.8,2-2v-56.7c1.7,1.1,3.7,2.4,4.5,3c0,2,0,53.9,0,57.5c-3.7,0-45.1,0-45.1,0c-0.6,0-1.1,0.3-1.4,0.6
					c0,0-3.1,3.1-7.5,3.7h-2c-4.5-0.4-7.6-3.7-7.6-3.7c-0.4-0.4-0.8-0.6-1.4-0.6c0,0-41.5,0-45.1,0c0-3.7,0-55.4,0-57.5
					c0.7-0.6,2.8-1.8,4.5-3v56.7c0,1.1,0.8,2,2,2h10.2c3.5,0,6.9-1.4,10.6-3c3.9-1.7,8-3.5,12.8-3.5c6.6,0,11.6,5.8,11.6,5.8
					c0.4,0.4,1,0.7,1.6,0.7H263.7L263.7,512.2L263.7,512.2z"/>
				<path class="st0" d="M322.8,516c0,1.1-0.8,2-2,2c0,0-44.9,0-46.4,0c-1.3,1.1-4.7,3.7-9.2,4.2h-2.8c-4.8-0.4-8.2-3.1-9.5-4.2
					c-1.6,0-46.4,0-46.4,0c-1.1,0-2-0.8-2-2v-58.8c-1.3,0-3,0-4.1,0c0,3.7,0,61.6,0,65.3c3.7,0,52.2,0,52.2,0c0.6,0,1.1,0.3,1.6,0.7
					c0,0,2.4,2.7,6.6,3.5c1.6,0.3,4.7,0.1,5.9,0c4.2-0.8,6.5-3.4,6.5-3.4c0.4-0.4,1-0.7,1.6-0.7c0,0,48.5,0,52.2,0
					c0-3.7,0-61.6,0-65.3c-1.1,0-2.8,0-4.1,0V516H322.8z"/>
				<path class="st0" d="M265.6,512.2h-2l0,0l0,0h-2c-0.6,0-1.1-0.3-1.6-0.7c0,0-4.9-5.8-11.6-5.8c-4.8,0-8.9,1.8-12.8,3.5
					c-3.5,1.6-7.1,3-10.6,3h-10c-1.1,0-2-0.8-2-2v-56.7c-1.7,1.1-3.7,2.4-4.5,3c0,2,0,53.9,0,57.5c3.7,0,45.1,0,45.1,0
					c0.6,0,1.1,0.3,1.4,0.6c0,0,3.2,3.2,7.6,3.7h2c4.4-0.6,7.3-3.7,7.5-3.7c0.4-0.4,0.8-0.6,1.4-0.6c0,0,41.5,0,45.1,0
					c0-3.7,0-55.4,0-57.5c-0.7-0.6-2.8-1.8-4.5-3v56.7c0,1.1-0.8,2-2,2H302c-3.5,0-6.9-1.4-10.6-3c-3.9-1.7-8.2-3.5-12.8-3.5
					c-6.6,0-11.6,5.8-11.6,5.8C266.8,511.9,266.2,512.2,265.6,512.2z"/>
				<path class="st0" d="M327,457.3c-1.1,0-2.8,0-4.1,0v58.8c0,1.1-0.8,2-2,2c0,0-44.9,0-46.4,0c-1.3,1.1-4.7,3.7-9.2,4.2h-2.8
					c-4.8-0.4-8.2-3.1-9.5-4.2c-1.6,0-46.4,0-46.4,0c-1.1,0-2-0.8-2-2v-58.8c-1.3,0-3,0-4.1,0c0,3.7,0,61.6,0,65.3
					c3.7,0,52.2,0,52.2,0c0.6,0,1.1,0.3,1.6,0.7c0,0,2.4,2.7,6.6,3.5c1.6,0.3,4.7,0.1,5.9,0c4.2-0.8,6.5-3.4,6.5-3.4
					c0.4-0.4,1-0.7,1.6-0.7c0,0,48.5,0,52.2,0C327,518.8,327,461,327,457.3z"/>
				<path class="st0" d="M247.3,443.1c-7.1,0-10.9,2.7-14.1,5.1c-2.5,1.8-4.9,3.5-8.2,3.5c0,0-5.4,0-7.9,0c0,3.7,0,52.8,0,56.4
					c2.5,0,8.2,0,8.2,0c2.7,0,5.6-1.3,8.9-2.7c4.1-1.8,8.9-3.8,14.4-3.8c6.2,0,10.9,3.5,13.1,5.6c0-5.2,0-57,0-57
					C261.7,450,259.4,443.1,247.3,443.1z M225.7,460.1c0.8,0,4.2-0.3,8.3-2.1l3.2-1.6l6.6-2.7c4.8-1.3,9.5-0.3,9.5-0.3
					c0.4,0.1,0.7,0.7,0.7,1.1c-0.1,0.4-0.3,0.6-1,0.6c-1.1-0.3-5.1-0.7-8.7,0.3l-6.2,2.5l-3.2,1.6c-4.5,2-8,2.3-9,2.3
					c-0.4,0-0.8-0.4-1-0.8C224.9,460.6,225.2,460.1,225.7,460.1z M225.7,472.1c0.8,0,4.2-0.3,8.3-2.1l3.2-1.6l6.6-2.7
					c4.8-1.3,9.5-0.3,9.5-0.3c0.4,0.1,0.8,0.6,0.7,1.1c-0.1,0.4-0.6,0.8-1,0.7c-1.1-0.3-5.1-0.7-8.7,0.3l-6.2,2.5l-3.4,1.6
					c-4.4,2-8,2.3-9,2.3c-0.6,0-0.8-0.4-1-0.8C224.9,472.5,225.2,472.1,225.7,472.1z M253.1,491.2c-1.1-0.3-5.1-0.7-8.7,0.3
					l-6.2,2.5l-3.4,1.6c-4.4,2-8,2.3-9,2.3c-0.4,0-0.8-0.4-1-0.8c0-0.6,0.4-0.8,0.8-1c0.8,0,4.2-0.3,8.3-2.1l3.2-1.6l6.6-2.7
					c4.8-1.3,9.5-0.3,9.5-0.3s0.4,0.3,0.4,1.1C253.6,490.9,253.4,491,253.1,491.2z M253.1,479.2c-1.1-0.3-5.1-0.7-8.7,0.3l-6.2,2.5
					l-3.2,1.6c-4.5,2-8,2.3-9,2.3c-0.4,0-0.8-0.4-1-0.8c0-0.6,0.4-0.8,0.8-1c0.8,0,4.2-0.3,8.3-2.1l3.2-1.6l6.6-2.7
					c4.8-1.3,9.5-0.3,9.5-0.3c0.4,0.1,0.8,0.6,0.7,1C253.9,478.9,253.5,479.3,253.1,479.2z"/>
				<path class="st0" d="M278.8,501.6c-6.2,0-10.9,3.5-13.1,5.6c0-5.2,0-57.5,0-57.5c0,0.3,2.1-6.8,14.4-6.8
					c7.1,0,10.9,2.7,14.1,5.1c2.5,1.8,4.9,3.5,8.2,3.5c0,0,5.4,0,7.9,0c0,3.7,0,52.8,0,56.4c-2.5,0-8.2,0-8.2,0
					c-2.7,0-5.6-1.3-8.9-2.7C289,503.7,284.4,501.6,278.8,501.6z M273.5,465.5c-0.4,0.1-0.8,0.6-0.7,1c0.1,0.4,0.6,0.8,1,0.7
					c1.1-0.3,5.1-0.7,8.7,0.3l6.2,2.5l3.2,1.6c4.5,2,8,2.3,9,2.3c0.4,0,0.8-0.4,1-0.8c0-0.6-0.4-0.8-0.8-1c-0.8,0-4.2-0.3-8.3-2.1
					l-3.2-1.6l-6.6-2.7C278.3,464.5,273.7,465.5,273.5,465.5z M273.5,453.2c-0.4,0.1-0.8,0.6-0.7,1c0.1,0.4,0.6,0.8,1,0.7
					c1.1-0.3,5.1-0.7,8.7,0.3l6.2,2.5l3.4,1.6c4.5,2,8,2.3,9,2.3c0.6,0,0.8-0.4,1-0.8c0-0.6-0.4-0.8-0.8-1c-0.8,0-4.2-0.3-8.3-2.1
					l-3.2-1.6l-6.5-2.7C278.3,452.2,273.7,453.2,273.5,453.2z M273.5,477.5c-0.4,0.1-0.8,0.6-0.7,1c0.1,0.4,0.6,0.8,1,0.7
					c1.1-0.3,5.1-0.7,8.7,0.3l6.2,2.5l3.2,1.6c4.5,2,8,2.3,9,2.3c0.4,0,0.8-0.4,1-0.8c0-0.6-0.4-0.8-0.8-1c-0.8,0-4.2-0.3-8.3-2.1
					l-3.2-1.6l-6.6-2.7C279.3,476.8,275.2,477.1,273.5,477.5z M273.5,489.3c-0.4,0.1-0.8,0.6-0.7,1c0.1,0.4,0.6,0.8,1,0.7
					c1.1-0.3,5.1-0.7,8.7,0.3l6.2,2.5l3.4,1.6c4.4,2,8,2.3,9,2.3c0.4,0,0.8-0.4,1-0.8c0-0.6-0.4-0.8-0.8-1c-0.8,0-4.2-0.3-8.3-2.1
					l-3.2-1.6l-6.5-2.7C279.3,488.6,275.2,489.1,273.5,489.3z"/>
				<g>
					<path class="st0" d="M141.9,622.6c-0.4-0.6-1.4-1.6-2.8-2.5c-0.7,1-1.7,2-3.4,2.5l-3.4,0.7c-3.7,0.7-8.7,1.6-10.4,5.5
						c-0.7,1.7-1,3.2-1,4.7c0,2.3,0.6,3.7,1,4.4c0.4-0.1,1-0.4,1.6-0.7c-1.1-4.2,1.1-8.3,1.8-7.9c0.4,0.3,0.3,2.5,0.4,4.4
						c0.1,0.7,0.3,1.4,0.6,1.8c0.8-0.6,1.6-1.1,1.7-1.4c0.4-3.2,3-5.4,4.9-5.4l2.4,0.7c2.3,1,7.5,3.2,9.5,1.3
						C144.2,628,142.9,624,141.9,622.6z"/>
				</g>
				<g>
					<path class="st0" d="M200.3,642.2c-0.4-0.3-0.8-0.6-1.3-0.8c0,0,0,0-0.1,0c-2.5,0-14.4-2-16.2-2.4c0,0-1.4-0.4-5.5,1.3
						c-3.4,1.4-5.5,3.9-6.8,6.3c0.4,0.4,1.1,0.8,1.8,1.3c1-1.6,2.5-3.5,5.4-4.7c2.3-0.8,5.8-1.3,7.2-0.6c0.8,0.4-3.1,1.6-6.1,3.7
						c-1.4,1-2.4,2.4-3,3.4c0.1,0,0.1,0.1,0.3,0.1c0.8,0.1,2.8-0.3,4.4-0.7l4.2-1c2-0.3,22.8-0.1,28.6,0c0.3-0.7,0.6-1.4,0.8-2.1
						C211,645.8,205.4,644.9,200.3,642.2z"/>
				</g>
				<path class="st1" d="M207.5,678.5c0.3,1.6-5.6,2.3-9,2.1c-4.9-0.1-9.9-0.7-9.6-2.5c0.3-1.8,4.8-1.3,9.6-1.1
					C201.7,677.1,207.2,676.8,207.5,678.5L207.5,678.5z M198.5,687.5c-0.3-1.6-5.5-1.4-8.5-1.4c-4.5-0.1-8.7-0.6-9,1.1
					c-0.3,1.7,4.4,2.3,9,2.4C193.3,689.8,198.9,689.1,198.5,687.5L198.5,687.5z M188.6,697c-0.3-1.3-4.1-1.1-6.2-1.3
					c-3.4-0.1-6.5-0.6-6.6,1c-0.3,1.6,3.2,2,6.6,2.1C184.7,698.9,188.8,698.4,188.6,697L188.6,697z M108.1,584.4l-1.1,0.4
					c-1,0.4-1.7,1.6-1.3,2.5c0.3,1,1.6,1.7,2.5,1.3l1.1-0.4c1-0.4,1.7-1.6,1.3-2.5C110.3,584.7,109.2,584.1,108.1,584.4z
					 M170.3,567.3c-0.3-0.6-1.1-0.7-1.7-0.6l-11,3.7c-1,0.4-1.3,1.8-0.8,3c0.4,1,1.8,1.8,2.8,1.4l10.3-5.8
					C170.4,568.7,170.6,567.9,170.3,567.3L170.3,567.3z M171.8,577.1c-0.3-0.6-1-0.8-1.6-0.8l-8.6,1.3c-1.1,0.3-1.6,1.7-1.3,2.7
					c0.3,1.1,1.4,2.1,2.5,1.8l8.2-3.4C171.7,578.6,172.1,577.8,171.8,577.1L171.8,577.1z M172.1,587.6c-0.1-0.6-0.8-1-1.4-1
					l-6.8-0.3c-1,0.1-1.7,1.3-1.6,2.3c0.1,1,1,2.1,2,2l6.8-1.4C171.7,589.2,172.3,588.3,172.1,587.6L172.1,587.6z M170.4,597.5
					c0-0.6-0.7-1-1.1-1.1l-5.1-1.1c-0.8,0-1.6,0.8-1.7,1.8c0,0.8,0.6,2,1.6,2l5.2-0.3C170,598.8,170.6,598.1,170.4,597.5
					L170.4,597.5z M212.9,562.8c-0.3,1.1,0.4,2.1,1.6,2.4c0,0,5.8,1.8,10.3,3.7c0.8,0.4,1.8,0.1,2.3-0.7c0.3-0.7,0-1.7-0.7-2.1
					c-5.1-2.7-10.7-4.7-10.9-4.7C214.3,561.1,213.2,561.7,212.9,562.8L212.9,562.8z M215.4,572.1c-0.3,1,0.4,2,1.3,2.1
					c0,0,4.4,1.1,7.8,2.5c0.7,0.3,1.6,0.1,2-0.6c0.4-0.7,0.1-1.6-0.6-2c-4.5-2.4-8.2-3.5-8.3-3.5
					C216.5,570.6,215.6,571.1,215.4,572.1L215.4,572.1z M216.3,580.6c-0.1,0.8,0.3,1.6,1.1,1.8c0,0,4.1,1.3,5.4,1.8
					c0.7,0.3,1.4,0.1,1.8-0.6c0.4-0.7,0.1-1.4-0.6-1.8c-4.1-2.1-5.2-2.3-5.9-2.3C217.3,579.5,216.4,579.9,216.3,580.6L216.3,580.6z
					 M216,588.3c-0.1,0.7,0.3,1.4,1,1.6c0,0,2.4,0.6,3.5,0.8c0.6,0.3,1.3,0.1,1.6-0.6c0.3-0.6,0.1-1.3-0.6-1.6
					c-1.3-0.7-3.4-1.4-3.9-1.4C217,587.4,216.1,587.6,216,588.3L216,588.3z M235,577.5c-0.6,1-0.3,2.3,0.7,2.8c0,0,2.3,1.1,6.1,4.2
					c0.7,0.6,1.7,0.6,2.3,0c0.6-0.7,0.6-1.7,0-2.3c-4.1-3.9-6.2-5.2-6.3-5.4C236.9,576.2,235.6,576.5,235,577.5L235,577.5z
					 M233.6,586.8c-0.4,0.8-0.1,2,0.7,2.4c0,0,1.4,0.4,4.2,2.7c0.7,0.4,1.6,0.6,2.1-0.1c0.6-0.6,0.6-1.6-0.1-2.1
					c-3.8-3.4-4.4-3.7-4.5-3.8C235.2,585.5,234.2,585.8,233.6,586.8L233.6,586.8z M231.5,594.1c-0.4,0.7-0.1,1.6,0.6,2
					c0,0,1.6,0.8,2.7,1.8c0.6,0.4,1.4,0.6,1.8,0c0.6-0.6,0.6-1.4,0-1.8c-0.6-0.6-2.3-2.1-3-2.5C232.8,593.3,231.9,593.4,231.5,594.1
					L231.5,594.1z M228.7,600.1c-0.4,0.6-0.3,1.4,0.3,1.8c0,0,0.6,0.3,1.4,1c0.6,0.4,1.1,0.6,1.7,0.1c0.6-0.4,0.6-1.1,0.1-1.7
					c-0.8-1.1-1.1-1.4-1.7-1.6C229.9,599.5,229.1,599.5,228.7,600.1L228.7,600.1z M247.7,597.4c-0.6,0.6-0.6,1.6,0,2.1
					c0,0,0.7,0.7,1.6,2c0.4,0.6,1.1,0.8,1.8,0.4c0.6-0.4,0.8-1.1,0.4-1.8c-0.4-0.7-1.1-2.1-1.8-2.7
					C249.1,596.8,248.3,596.7,247.7,597.4L247.7,597.4z M243.6,602.7c-0.6,0.6-0.6,1.4,0,1.8c0.6,0.4,0.8,0.7,0.8,0.8
					c0.6,0.6,1.1,0.7,1.7,0.4c0.6-0.3,0.7-1,0.4-1.7c-0.3-0.6-0.6-1.1-1.1-1.6C244.9,602.5,244.1,602.3,243.6,602.7L243.6,602.7z
					 M110.6,601.9c1.7-0.8-2.3-4.2-1.1-6.6c1.1-2.5,9.7-6.2,9.6-7.6c-0.1-1.4-11.4,2.1-13.3,5.8
					C103.9,597.5,108.9,602.7,110.6,601.9L110.6,601.9z M123.2,579.6c1.6,0.7,2.4-0.8,3-1c0.3-0.1,0.8-0.4,1.7,0c1,0.4,1,1,1,1.3
					c0.1,0.3,0.1,1.7,1.4,2c1.3,0.3,3.9-4.4-0.6-6.6c-1.4-0.7-3-0.8-4.4-0.3C122.5,575.9,121.6,578.9,123.2,579.6L123.2,579.6z
					 M246.3,576.5c-30.2-36.5-72.1-18.9-74.2-18.1c-8.3,1.7-15.4,5.4-20,7.8l-4.9,2.3l-15.4,1.8c-4.5,1-10.9,4.4-18.9,8.9l-5.8,3.2
					c-9.5,5.1-11,9.2-11,9.3c-0.1,0.6-0.6,1-1.1,1.3c-1,0.4-2.1,1.3-2.4,2.4c0,0.1,0,0.3,0,0.4c0,0.1,0,0.3,0.1,0.4l2.1-1.1
					c1-0.6,2.3-0.1,2.7,0.8c0.6,1,0.1,2.3-0.8,2.7l-2.1,1.1c1.6,2.5,3.8,3.1,3.8,3.1l0.8-0.3c2-0.6,7.1-2.3,9.5,4.1l-0.1,3.2
					c-0.6,1.3-1.7,2.1-2.7,2.8c1.8,0.7,4.8,0.3,6.1,0.1c0,0,1.3-0.1,1.1-0.1l2.3-0.4c5.4-1,11.4-2,15.2-1.1
					c5.2,1.1,12.8,6.1,14.8,9.2c1.4,2.1,4.5,11.6,4.2,13.5c-0.1,1.3-0.8,5.2-5.2,7.6c-2.7,1.4-5.6,1.3-7.9,1.3c0,0-2.5,0.1-2.5,0
					c-0.6,0.4-2,2.5-3.4,4.7c0.6,0,1.4,0,2.3,0c1.4-1.4,3.4-3.4,4.1-2.8c0.4,0.3,0.1,1.6-0.3,2.8c2.4,0,4.4,0,4.4,0h1.8
					c2.5,0.1,7.5,0.3,8.9-1.1l2.1-1.7l6.8-5.6l7.2-5.8l3-2.3c1.4-1.3,1.6-10.3,0.4-19.5c-0.1-1.1,0.7-2.1,1.7-2.3
					c1.1-0.1,2.1,0.7,2.3,1.7c0.6,3.9,1.3,11.4,0.6,16.9c0.1,0,0.3,0.1,0.4,0.1c5.5,3.7,11.7,5.9,16.5,7.3c-1.7-2.3-3.2-5.1-4.4-8.3
					c-0.8-2.4-1.1-4.7-1.1-6.6c0-7.1,4.2-12.6,7.9-17.1c2.8-3.5,5.4-6.8,5.4-9.9c0-0.3,0-0.6,0-0.8c0-0.1,0-0.1,0-0.3
					c0-1,0.7-1.8,1.7-2c1.1-0.1,2.1,0.6,2.3,1.7c0.8,5.2-2.5,9.5-6.1,14c-4.4,5.5-9,11.3-6.1,19.9c2,5.5,4.8,9.2,8.6,11.7
					c0.1,0.1,0.3,0.1,0.4,0.3c0.4,0.3,0.7,0.6,1.1,0.7c6.5,3.2,14.5,3.7,14.7,3.7c0.6,0,1.1,0.3,1.4,0.7c0.4,0.4,0.6,1,0.4,1.6
					c0,0.1-0.4,3.2-2.1,6.2c-0.1,0.4-0.3,0.7-0.7,1c-0.4,0.6-0.8,1.1-1.4,1.7l-7.2,5.2c-5.6,3.8-14.2,9.6-23.7,17.5
					c-11.3,9.3-17.9,22.6-16.4,28.1c0.3,1,1,2.3,3.5,2.5c19,2.1,30.3-10,40.3-20.7l2.5-2.8c6.6-7.1,11.7-15.7,15.1-21.4
					c2.4-4.1,3.4-5.8,4.4-6.5c7.9-5.5,20.3-22.1,23.1-42C258.3,599.2,254.9,586.8,246.3,576.5z"/>
				<path class="st0" d="M296.7,653.1c3.5,0.4,7.3,0,10.9-1.4c3.4-1.4,5.8-3.7,7.8-6.2c2.5,3.7,8.7,12.7,11,16.1
					c-3.7,5.1-8.5,10-13.8,14.7L296.7,653.1z"/>
				<path class="st0" d="M51,645.5c1.8,2.5,4.4,4.8,7.8,6.2c3.5,1.4,7.5,1.8,11,1.4l-16.4,23.1c-5.2-4.7-10.2-9.6-13.8-14.7
					C41.8,658.2,48.3,649.1,51,645.5z"/>
				<path class="st0" d="M103.4,782.3c0.8-1,1.8-2,3.1-3l3-2.4c3.9-3.2,9-7.5,12.3-10.7c8.2,3.7,15,7.5,19.5,12.4
					c3.4,3.8,3.8,8.7,1.3,11.6c-0.6,0.6-1.6,1.4-2.1,2.1l-5.5,5.5h-3.2c-16.1,0.1-27.1-5.5-29.3-10.9
					C101.9,785.4,102.6,783.6,103.4,782.3z"/>
				<path class="st0" d="M256.7,776.9l3,2.4c1.3,1,2.3,2,3.1,3c0.7,1.3,1.1,3.7,0.6,5.1c-2.3,5.4-13.3,11-29.2,10.9l0,0l0,0H231
					l-5.2-6.1c-0.7-0.6-1.8-1.6-2.4-2.1c-2-1.8-2.1-7.8,1.3-11.6c4.5-5.1,11.3-8.9,19.5-12.4C247.4,769.5,252.8,773.7,256.7,776.9z"
					/>
				<path class="st0" d="M56.3,611.9L56.3,611.9L56.3,611.9z"/>
				<path class="st0" d="M109.6,755.6l-1.7-0.7c-37.1-14.7-67.8-34.3-82.4-52.5C9.6,682.2,12,666.2,16.8,656l4.9-10.7l4.8-10
					c-0.4,5.1,0.3,11.1,3.4,18.3c7.6,18.2,33.3,37.7,52.9,48.8c8.5,4.8,16.8,8.6,25,12.4c22.4,10.3,40.1,18.3,40.1,38.4v23.7
					c0,1,0,1.8-0.1,2.7c-0.7-1.6-1.6-3.1-2.7-4.4C137.3,766.5,124.4,761.4,109.6,755.6z M73,706.1c0.4-0.7,0.8-1.6,1.1-2.3
					c-2.8-1.7-5.5-3.5-8.3-5.5c-0.4,0.7-0.8,1.7-1.3,2.4c0.7,0.4,1.4,1,2,1.4c-2.8,5.9-5.6,11.7-8.5,17.6c-0.7-0.4-1.4-0.8-2.1-1.1
					c-0.4,0.7-0.7,1.6-1.1,2.3c4.5,3.1,9.2,5.9,14,8.6c1.4-1.7,2.7-3.4,3.9-5.1c0-0.1,0.1-0.1,0.1-0.3c-0.7-0.7-1.4-1.3-2-2
					c-1,1.1-2.3,2.7-3.5,3.2c-1.6-0.6-4.1-2-5.4-3.2c0-1.6,6.2-13.4,8.3-17.6C71,704.9,72.3,705.7,73,706.1L73,706.1z M51.2,707.7
					c1.1-2,2.1-4.1,3.2-6.1c-0.6-0.6-1.1-1-1.7-1.6c-0.4,0.6-0.7,1.1-1.1,1.6c-0.3,0.1-3.1-2.3-3.7-2.7c1.3-2.4,2.5-4.9,3.9-7.6
					c1.3,1,3.9,2.8,4.5,4.2c0.4,1-0.8,2.8-1,3.9c0.1,0.6,1.6,1.1,2,1.6c1-2,2-4.2,2.8-6.2c-4.2-3.2-8.3-6.5-12.4-9.9
					c-0.4,0.7-0.8,1.4-1.3,2.1c0.6,0.6,1.3,1.1,1.8,1.7c-3.1,6.1-5.6,11.1-8.7,17.2c-0.6-0.4-1.3-1-1.8-1.4
					c-0.4,0.7-0.7,1.4-1.1,2.1c4.1,3.7,8,7.1,12.6,10.4c1.1-1.7,2.4-3.5,3.7-5.4c0-0.1,0-0.1,0.1-0.3c-0.7-0.7-1.3-1.3-2-2
					c-0.4,0.6-2.4,3.2-2.8,3.2c-0.8,0-4.4-3.1-4.9-4.1c0.1-1.3,2.8-6.1,3.7-7.5c1.1,0.8,2.8,2,3.5,3.1c-0.1,0.7-0.4,1.6-0.8,2.1
					C50.1,706.8,50.7,707.2,51.2,707.7L51.2,707.7z M124.6,729.5c-6.1-3.4-12.6-6.1-18.8-9c-1.1,2-2.1,3.9-3.1,6.1
					c0.8,0.4,1.7,1,2.5,1.4c0.8-1.1,1.7-2.3,2.4-3.4c1.1-0.1,3.1,0.8,4.5,1.4c-2.7,5.9-5.5,12.3-8.2,18.2c-1-0.4-1.8-0.7-2.8-1.1
					c-0.3,0.7-0.7,1.4-1,2.1c3.2,1.4,6.5,2.8,9.7,4.2c0.3-0.7,0.7-1.4,1-2.1c-1-0.4-1.8-0.8-2.8-1.4c2.7-5.9,5.6-12.3,8.3-18.2
					c1.4,0.7,3.2,1.7,3.8,2.7c-0.4,1.3-0.8,2.4-1.4,3.7c0.1,0.4,2.1,1,2.7,1.3C122.6,733.6,123.6,731.5,124.6,729.5L124.6,729.5z
					 M102.9,719.2c-2.7-1.3-5.2-2.7-7.9-3.9c-0.3,0.7-0.7,1.4-1,2.1c0.8,0.6,1.8,1,2.7,1.6c-2.8,6.1-7.2,19.6-13.4,15.5
					c-4.4-2.8-2.7-6.3-0.3-11.4c1.4-2.8,3-6.1,4.4-8.9c0.8,0.4,1.8,0.8,2.7,1.3c0.3-0.7,0.7-1.4,1-2.1c-3-1.6-5.8-3.1-8.7-4.5
					c-0.4,0.7-0.7,1.4-1.1,2.1c0.6,0.3,1.3,0.7,1.8,1c0,1.1-2,4.7-2.7,5.9c-3,6.1-5.9,10.9-3.1,15.2c0.7,1,1.7,2,2.8,2.8
					c1.7,1.3,3.8,2,5.4,2c7.2,0.6,10.4-9,14.4-17.3c0.7,0.3,1.3,0.6,2,0.8C102.3,720.8,102.6,720.1,102.9,719.2L102.9,719.2z
					 M43.1,683.8c0.6,0.4,1,0.8,1.6,1.3c0.3-0.8,0.7-1.6,1-2.3c-2.1-2-4.1-3.9-6.2-5.9c-0.3,0.8-0.8,1.6-1.1,2.3
					c0.6,0.7,1.6,1.4,2.1,2.1c-2,2.3-9.5,10.4-10.2,11.1v0.1c-0.3-0.6,2.7-17.5,3.1-19c0.7,0.7,1.4,1.6,2.1,2.3
					c0.4-0.7,0.8-1.4,1.3-2.1c-2.3-2.7-4.4-5.5-6.2-8.5c-0.6,0.7-1,1.3-1.6,2c0.4,0.7,0.7,1.3,1.1,2c-0.6,2.1-3.9,23.6-4.1,25.8
					c0.7,1,1.4,1.8,2.1,2.8C32.2,694.7,41.5,685.4,43.1,683.8L43.1,683.8z"/>
				<path class="st0" d="M340.7,702.5c-14.4,18.2-45.3,37.8-82.4,52.5l-1.7,0.7c-14.8,5.9-27.6,10.9-35.4,19.6
					c-1.1,1.3-2,2.8-2.7,4.4c-0.1-0.8-0.1-1.7-0.1-2.7v-23.7c0-20,17.6-28.1,40.1-38.4c8.2-3.7,16.5-7.6,25-12.4
					c19.6-11.1,45.3-30.6,52.9-48.8c3-7.2,3.7-13.4,3.4-18.3l4.8,10l4.9,10.7C354.2,666.1,356.6,682.3,340.7,702.5z M263.9,731.9
					C263.9,731.9,263.8,731.9,263.9,731.9c0.1-3.8,0.6-7.1,1-10.7l0.1-0.1c1.4,3,2.5,5.5,3.9,8.5
					C267.5,730.4,265.5,731.2,263.9,731.9L263.9,731.9z M283.4,729.4c0.1,1,0.8,3,0.6,3.8c-0.4,0.8-5.9,3.7-6.9,3.7
					c-1.3-2.3-2-4.8-3.2-7.2c1.3-0.7,5.1-2.7,5.6-2.5c0.4,0.6,0.7,1.3,1.1,1.8c0.7-0.4,1.6-0.7,2.3-1.1c-1-2.3-2-4.5-3-6.8
					c-0.7,0.4-1.6,0.7-2.3,1.1c0.1,0.7,0.4,1.4,0.6,2.1c-0.6,0.8-4.4,2.7-5.5,3.2c-1.4-3-2.5-5.6-3.9-8.6c1.8-0.8,4.8-2.8,6.6-3.1
					c0.8,0.6,1.8,2,2.4,3c0.7-0.4,1.4-0.8,2.1-1.3c0.1-0.6-2.4-4.7-2.8-5.5c-4.5,2.4-10.2,5.4-14.8,7.3c-0.7,8.5-1.4,16.9-2.3,25.2
					c-0.7,0.4-1.3,0.8-2,1.3c0.3,0.7,0.6,1.4,1,2.3c2.5-1.1,5.1-2.4,7.8-3.4c-0.3-0.7-0.7-1.4-1-2.3c-0.8,0.3-1.7,0.7-2.5,1.1
					c0.1-2.7,0.3-6.2,0.3-8.9c2-1,4.4-2,6.3-3c1.1,2.3,2.1,5.2,3.2,7.3c-0.8,0.4-1.6,0.8-2.4,1.3c0.4,0.7,0.7,1.4,1.1,2.1
					c4.9-2.3,10.9-5.4,15.8-7.8c-0.6-2-1.1-3.9-1.8-5.9C285.2,729,284.3,729.1,283.4,729.4L283.4,729.4z M301.6,700.5
					c0.6-0.4,1.1-0.8,1.7-1.3c-0.4-0.7-0.7-1.4-1.1-2.1c-2.4,1.7-4.9,3.2-7.3,4.9c0.4,0.7,0.7,1.4,1.1,2.1c0.8-0.6,1.7-1,2.4-1.6
					c0.7,3.5,1.7,13.7,1.8,16.1c0.1,1,0.1,1.8,0.3,2.8v0.1c-0.6,0.1-2.4-2.4-3-3l-6.1-6.9c-0.8-1-2-2.1-2.8-3.1
					c0.8-0.6,1.8-1.1,2.7-1.7c-0.3-0.7-0.6-1.6-0.8-2.3c-3.1,1.7-6.2,3.5-9.3,5.2c0.3,0.7,0.6,1.6,0.8,2.3c0.7-0.3,1.3-0.7,2-1
					c1.1,1.4,2.5,2.8,3.8,4.1c2.8,3,5.6,5.9,8.5,8.9c1.3,1.3,2.4,2.4,3.7,3.7c1-0.6,2-1.3,3.1-1.8c-0.4-5.9-0.7-11.8-1.1-17.6
					C302,705.8,301.9,702.9,301.6,700.5L301.6,700.5z M323.9,708.8c-5.1,4.2-10.6-2.3-12-8.5c-0.7-3-0.7-5.9,1-8.2
					c0.4-0.4,1-1,1.4-1.4c1.4-0.8,2.4-1.3,3.5-1.3C324,689.6,329.9,703.7,323.9,708.8L323.9,708.8z M325.9,688.8
					c-3.2-3.1-7.2-3.7-12.6-0.4c-0.8,0.7-1.6,1.4-2.4,2.1c-2.3,2.5-3.2,5.5-3.4,8.6c-0.1,1.3,0.1,2.7,0.4,3.9
					c0.3,1.6,1.4,4.1,2.3,5.4c3.4,4.8,7.2,6.1,12.7,3.9C331.8,708.8,332.5,695.1,325.9,688.8L325.9,688.8z"/>
				<path class="st0" d="M265.9,792c0,0.3,0,0.4,0,0.7V826c0,10.2-17.3,13.7-32.2,13.7H132.3c-14.8,0-32.2-3.5-32.2-13.7v-33.3
					c0-0.3,0-0.4,0-0.7c5.5,6.5,17.9,10.9,32.2,10.7h101.4l0,0C248,802.9,260.4,798.5,265.9,792z M232.6,821.2c0-3.2,0-6.5,0-9.7
					c1.3-0.1,2.8-0.1,3.9,0.3c2.5,1.1,4.1,4.9,2,7.6C237.4,820.9,235.3,821.2,232.6,821.2L232.6,821.2z M243.6,828.8
					c-1-1.8-2.5-5.8-4.5-6.5c0-0.1,0-0.1,0-0.3c4.2-1.1,7.1-7.6,2.8-11c-3.2-2.5-10.2-2-15.9-2c0,0.7-0.1,1.6-0.1,2.3l0,0
					c0.8,0,1.6,0.1,2.4,0.1v19.3c-0.8,0-1.6,0.1-2.4,0.1c0,0.7,0,1.6,0,2.3l0,0h9.3c0-0.8,0-1.6,0-2.4c-0.8,0-1.8-0.1-2.7-0.1
					c0-2.4,0-4.9,0-7.5c1,0,2.3-0.1,3.1,0.1c2.3,1,3.7,7.8,5.5,9.6c0.4,0.4,5.1,0.1,6.1,0v-2.3c-0.7,0-1.6-0.1-2.3-0.1
					C244.3,830.5,244.1,829.5,243.6,828.8L243.6,828.8z M187.4,827.8c-0.6,2.1-2.3,3-4.4,3.4c-1.1,0.1-2.8,0-3.1-0.6
					c-0.3-0.4-0.3-1.3-0.3-2c0-1.1-0.1-5.9,0.1-6.5C183.8,822.1,188.5,823.3,187.4,827.8L187.4,827.8z M179.6,811.5
					c2.7-0.1,4.8,0.1,5.9,1.7c0.4,0.7,0.8,1.7,0.7,2.8c-0.6,3.1-3,4.1-6.6,3.8C179.6,817,179.6,814.3,179.6,811.5L179.6,811.5z
					 M186.4,820.5L186.4,820.5l-0.1-0.3c4.2-1.7,6.5-7.3,1.6-10c-3.2-1.8-10.2-1.1-15-1v2.4c0.8,0,1.7,0,2.5,0v19.5
					c-0.8,0-1.7,0.1-2.5,0.1c0,0.7,0,1.6,0,2.3c5.5,0,12.3,0.7,15.9-1.4c2.5-1.6,4.8-5.4,2.4-8.7
					C189.7,821.5,188.5,821.4,186.4,820.5L186.4,820.5z M154.6,821.2c0-3.2,0-6.5,0-9.7c1.3-0.1,2.8-0.1,3.9,0.3
					c2.5,1.1,4.1,4.9,2,7.6C159.4,820.9,157.3,821.2,154.6,821.2L154.6,821.2z M165.6,828.8c-1-1.8-2.5-5.8-4.5-6.5
					c0-0.1,0-0.1,0-0.3c4.2-1.1,7.1-7.6,2.8-11c-3.2-2.5-10.2-2-15.9-2c0,0.7-0.1,1.6-0.1,2.3l0,0c0.8,0,1.6,0.1,2.4,0.1v19.3
					c-0.7,0-1.6,0.1-2.4,0.1c0,0.7,0,1.6,0,2.3l0,0h9.3c0-0.8,0-1.6,0-2.4c-0.8,0-1.8-0.1-2.7-0.1c0-2.4,0-4.9,0-7.5
					c1,0,2.3-0.1,3.1,0.1c2.3,1,3.7,7.8,5.5,9.6c0.4,0.4,5.1,0.1,6.1,0v-2.3c-0.7,0-1.6-0.1-2.3-0.1
					C166.3,830.5,166.1,829.5,165.6,828.8L165.6,828.8z M128.3,824.2c1.1-3.4,2.3-6.6,3.4-10c0.1,0,0.1,0,0.3,0l3.2,9.9L128.3,824.2
					C128.3,824.1,128.3,824.2,128.3,824.2z M134.2,808.9c-0.8-0.3-2.7-0.1-3.5,0c-2.8,7.3-5.5,14.7-8.3,22c-0.4,0.3-1.4,0.3-2.1,0.3
					v2.4h8.6v-2.4c-0.8,0-1.8,0-2.8,0c0.4-1.4,0.8-2.8,1.3-4.4c2.8,0,5.5-0.1,8.3-0.1c0.7,1.1,1.3,3.1,1.6,4.4
					c-0.8,0-1.7,0.1-2.5,0.1v2.4h9.3v-2.4c-0.7,0-1.4,0-2.1,0C139.3,823.6,136.7,816.3,134.2,808.9L134.2,808.9z M209.8,831.4
					c-6.3,1-8.9-7.1-7.6-13.1c0.6-2.8,1.8-5.5,4.4-6.5c0.7-0.1,1.3-0.3,2-0.4c1.6,0,2.8,0.1,3.7,0.7
					C217.7,815.3,217.4,830.1,209.8,831.4L209.8,831.4z M208.5,808.8c-1,0.1-2.1,0.4-3.1,0.6c-3.1,1-5.2,3.1-6.6,5.6
					c-0.6,1-1,2.4-1.3,3.7c-0.3,1.6-0.3,3.8,0,5.4c1.1,5.8,4.1,8.9,10,9.9c9.7,1.6,16.1-9.5,12.6-18.3
					C218.1,811.2,214.7,808.7,208.5,808.8L208.5,808.8z"/>
				<path class="st0" d="M355.1,426.7c0,0,0,0.8,0,2c0,1.1,0.1,2,0.1,2h-344c0,0-0.1-0.8-0.1-2c0-1.1,0.1-2,0.1-2H355.1z
					 M355.1,426.7c0-59.8,0-131.5,0-131.5h-172l0,0h0.1h-172c0,0,0,71.5,0,131.5 M157.6,381.3c2,0,3.5,1.6,3.5,3.5s-1.6,3.5-3.5,3.5
					s-3.5-1.6-3.5-3.5C153.9,383,155.6,381.3,157.6,381.3L157.6,381.3z M131.8,389.6c1.7-1,3.9-0.3,4.9,1.4c1,1.7,0.3,3.9-1.4,4.9
					s-3.9,0.3-4.9-1.4C129.5,392.9,130.1,390.6,131.8,389.6L131.8,389.6z M145.3,385.9c1,0,1.8,0.8,1.8,1.8s-0.8,1.8-1.8,1.8
					s-1.8-0.8-1.8-1.8C143.3,386.8,144.2,385.9,145.3,385.9L145.3,385.9z M170.1,381.6c1,0,1.8,0.8,1.8,1.8s-0.8,1.8-1.8,1.8
					s-1.8-0.8-1.8-1.8S169,381.6,170.1,381.6L170.1,381.6z M211.6,385c0,2-1.6,3.5-3.5,3.5c-2,0-3.5-1.6-3.5-3.5s1.6-3.5,3.5-3.5
					C210.1,381.3,211.6,383,211.6,385L211.6,385z M235.2,394.6c-1,1.7-3.1,2.4-4.9,1.4c-1.7-1-2.4-3.1-1.4-4.9
					c1-1.7,3.1-2.4,4.9-1.4C235.4,390.6,236.2,392.9,235.2,394.6L235.2,394.6z M222.2,387.8c0,1-0.8,1.8-1.8,1.8s-1.8-0.8-1.8-1.8
					s0.8-1.8,1.8-1.8C221.3,385.9,222.2,386.8,222.2,387.8L222.2,387.8z M197.4,383.5c0,1-0.8,1.8-1.8,1.8s-1.8-0.8-1.8-1.8
					s0.8-1.8,1.8-1.8C196.5,381.6,197.4,382.4,197.4,383.5L197.4,383.5z M182.7,339.1c2,0,3.7,1.7,3.7,3.7s-1.7,3.7-3.7,3.7
					s-3.7-1.6-3.7-3.7C179,340.8,180.7,339.1,182.7,339.1L182.7,339.1z M182.7,329c2,0,3.7,1.7,3.7,3.7s-1.7,3.7-3.7,3.7
					s-3.7-1.7-3.7-3.7S180.7,329,182.7,329L182.7,329z M182.7,318.8c2,0,3.7,1.7,3.7,3.7s-1.7,3.7-3.7,3.7s-3.7-1.6-3.7-3.7
					C179,320.5,180.7,318.8,182.7,318.8L182.7,318.8z M165.2,319.8c2,0,3.7,1.7,3.7,3.7s-1.7,3.7-3.7,3.7s-3.7-1.6-3.7-3.7
					S163.1,319.8,165.2,319.8L165.2,319.8z M153.2,315.8c2,0,3.7,1.6,3.7,3.7c0,2-1.7,3.7-3.7,3.7s-3.7-1.7-3.7-3.7
					C149.6,317.4,151.2,315.8,153.2,315.8L153.2,315.8z M140.9,313.2c2,0,3.7,1.7,3.7,3.7s-1.7,3.7-3.7,3.7s-3.7-1.7-3.7-3.7
					C137.3,314.7,139,313.2,140.9,313.2L140.9,313.2z M128.4,314.9c2,0,3.7,1.7,3.7,3.7s-1.7,3.7-3.7,3.7s-3.7-1.6-3.7-3.7
					C124.9,316.6,126.4,314.9,128.4,314.9L128.4,314.9z M117.7,321.6c2,0,3.7,1.7,3.7,3.7s-1.7,3.7-3.7,3.7s-3.7-1.7-3.7-3.7
					C114,323.3,115.6,321.6,117.7,321.6L117.7,321.6z M111.3,332.6c2,0,3.7,1.6,3.7,3.7c0,2-1.7,3.7-3.7,3.7s-3.7-1.7-3.7-3.7
					S109.4,332.6,111.3,332.6L111.3,332.6z M111.5,345.5c2,0,3.7,1.6,3.7,3.7s-1.7,3.7-3.7,3.7s-3.7-1.7-3.7-3.7
					S109.5,345.5,111.5,345.5L111.5,345.5z M116,357.3c2,0,3.7,1.7,3.7,3.7s-1.7,3.7-3.7,3.7s-3.7-1.7-3.7-3.7
					C112.3,358.9,114,357.3,116,357.3L116,357.3z M204.1,323.3c0,2-1.7,3.7-3.7,3.7s-3.7-1.6-3.7-3.7c0-2,1.7-3.7,3.7-3.7
					C202.6,319.8,204.1,321.3,204.1,323.3L204.1,323.3z M216.1,319.5c0,2-1.7,3.7-3.7,3.7s-3.7-1.7-3.7-3.7s1.7-3.7,3.7-3.7
					C214.4,315.8,216.1,317.4,216.1,319.5L216.1,319.5z M228.4,316.8c0,2-1.7,3.7-3.7,3.7s-3.7-1.7-3.7-3.7s1.7-3.7,3.7-3.7
					C226.7,313.2,228.4,314.7,228.4,316.8L228.4,316.8z M240.8,318.5c0,2-1.7,3.7-3.7,3.7s-3.7-1.6-3.7-3.7c0-2,1.7-3.7,3.7-3.7
					C239.3,314.9,240.8,316.6,240.8,318.5L240.8,318.5z M251.7,325.3c0,2-1.7,3.7-3.7,3.7s-3.7-1.7-3.7-3.7s1.7-3.7,3.7-3.7
					C250.1,321.6,251.7,323.3,251.7,325.3L251.7,325.3z M258,336.3c0,2-1.7,3.7-3.7,3.7s-3.7-1.7-3.7-3.7s1.7-3.7,3.7-3.7
					S258,334.3,258,336.3L258,336.3z M257.9,349.1c0,2-1.7,3.7-3.7,3.7s-3.7-1.7-3.7-3.7s1.7-3.7,3.7-3.7S257.9,347,257.9,349.1
					L257.9,349.1z M253.4,360.8c0,2-1.7,3.7-3.7,3.7s-3.7-1.7-3.7-3.7s1.7-3.7,3.7-3.7C251.7,357.3,253.4,358.9,253.4,360.8
					L253.4,360.8z M217.7,418.8c0.1-0.3,3.1-1.6,3.1-1.6c7.6-3.5,10.4-7.9,10.4-11.1c0-6.3-20.7-13.4-48.5-13.4s-48.7,7.1-48.7,13.4
					c0,3.2,3,7.6,10.9,11.3c0,0,3.2,1.4,3.1,1.6c-0.1,0.4-2.8-0.3-3.7-0.6c-8.6-3-14.4-7.1-14.4-12.3c0-11.3,27.1-17.5,52.6-17.5
					s52.6,6.1,52.6,17.5c0,5.2-5.6,9.3-14.1,12.1C220.9,418.4,217.4,419.2,217.7,418.8L217.7,418.8z M182.7,377.2
					c-16.1,0-31.3,2.3-41.9,6.2c-4.9,1.8-7.9,3.7-10.3,5.1c-0.6,0.4-1.3,0.4-2,0.1c-1-0.4-1.1-1.3-1.4-2.5
					c-0.4-2.4-1.6-8.7-5.6-16.4c-0.4-0.8,0.6-1.7,1.1-0.8c2.4,3,7.5,11.7,8,14.4v0.3c0,0,0.1-0.1,0.3-0.1c2.1-1.1,4.8-2.5,8.3-3.8
					c11-4.1,26.8-6.5,43.3-6.5h0.1c16.5,0,32.3,2.4,43.4,6.5c3.5,1.3,6.2,2.7,8.3,3.8l0.3,0.1c0,0,0-0.1,0-0.3
					c0.6-2.7,5.6-11.3,8-14.4c0.7-0.8,1.6,0,1.1,0.8c-3.9,7.6-5.2,14-5.6,16.4c-0.3,1.3-0.4,2.1-1.4,2.5c-0.6,0.3-1.4,0.3-2-0.1
					c-2.4-1.6-5.4-3.2-10.3-5.1c-10.6-3.9-26-6.2-42-6.2H182.7L182.7,377.2z M190.6,309.2c0,1.1-0.8,2-2,2h-3.8v3.9c0,1.1-0.8,2-2,2
					c-1.1,0-2-0.8-2-2v-3.9H177c-1.1,0-2-0.8-2-2c0-1.1,0.8-2,2-2h3.8v-3.7c0-1.1,0.8-2,2-2c1.1,0,2,0.8,2,2v3.7h3.8
					C189.7,307.1,190.6,308.1,190.6,309.2z M182.6,398.4c14.5,0,42,2.4,42,11.1c0,8.9-27.5,11.1-42,11.1s-42.2-2.4-42.2-11.1
					C140.4,400.6,168,398.4,182.6,398.4z M249,342.1c0,11.1-8.9,23.3-12.7,28.5v0.1l-0.1,0.3v-0.1c-1.8,3.5-6.3,6.5-12.1,4.7
					c-3-1-6.1-1.6-7.8-4.9c-1-1.8-1.6-4.1,0.3-6.6c0.6-0.7,2-1.4,2.7-1.1c0.6,0.3,1,1.4,0.3,2.1c-1,1.1-0.4,3.1,1.1,3.9
					c1.1,0.6,2.4,0,2.5-0.4c0-0.3-2.1-1.7-0.1-3.2c1.4-1.1,5.4-4.9,0.1-7.5c-4.1-2-7.3,3.7-7.8,4.4c-0.4,0.7-0.8,0.4-0.7-0.3
					c0.8-3.9,4.2-5.2,5.1-9.7c0.7-3.2-1.7-5.9-3-7.1c-0.4-0.4-1.1-0.6-1.8-0.3c-1.7,0.6-4.7,2.3-5.2,5.4c-0.8,4.4,1.7,6.9,1,10.9
					c-0.1,0.8-0.7,0.8-0.7,0s-0.8-7.2-5.4-7.1c-5.8,0.3-3.7,5.2-2.8,6.9c1.1,2.3-1.3,2.7-1.4,2.8c-0.3,0.4,0.7,1.7,2.1,1.6
					c1.8-0.1,3.1-1.8,2.5-3.1c-0.3-1,0.4-1.8,1.1-1.8c0.7,0,1.8,1.3,2,2c0.8,3.1-0.7,4.9-2.3,6.2c-3,2.4-7.5,2.1-9.9,1.8
					c-8.2-0.8-8.7-5.9-8.7-5.9c1.7,0.7,5.5,2.1,5.5,2.1c0.1,0,0.3,0,0.4,0c0.7,0,1.3-0.6,1.3-1.3v-7.9c0-0.7-0.6-1.3-1.3-1.3
					c0,0-0.3,0-0.4,0.1l-5.6,2.3l1.6-4.5c0-0.1,0.1-0.3,0.1-0.6c0-0.7-0.6-1.3-1.3-1.3H183h-4.7c-0.7,0-1.3,0.6-1.3,1.3
					c0,0.1,0,0.3,0.1,0.6l1.6,4.5l-5.6-2.3c-0.1,0-0.4-0.1-0.4-0.1c-0.7,0-1.3,0.6-1.3,1.3v7.9c0,0.7,0.6,1.3,1.3,1.3
					c0.1,0,0.3,0,0.4,0c0,0,3.8-1.4,5.5-2.1c0,0-0.6,4.9-8.7,5.9c-2.4,0.3-6.9,0.6-9.9-1.8c-1.6-1.3-3.1-3.2-2.3-6.2
					c0.3-0.8,1.3-2.1,2-2c0.6,0,1.4,1,1.1,1.8c-0.4,1.4,0.7,3,2.5,3.1c1.4,0.1,2.4-1,2.1-1.6c-0.1-0.1-2.5-0.6-1.4-2.8
					c1-1.7,3.1-6.6-2.8-6.9c-4.5-0.1-5.4,6.2-5.4,7.1c0,0.8-0.6,0.7-0.7,0c-0.8-3.9,1.8-6.5,1-10.9c-0.7-3.1-3.7-4.8-5.2-5.4
					c-0.7-0.3-1.4-0.1-1.8,0.3c-1.3,1.1-3.5,3.8-3,7.1c0.8,4.4,4.2,5.8,5.1,9.7c0.1,0.8-0.3,1.1-0.7,0.3c-0.4-0.8-3.5-6.3-7.8-4.4
					c-5.2,2.5-1.4,6.2,0.1,7.5c2,1.6-0.3,3.1-0.1,3.2c0.1,0.4,1.4,1.1,2.5,0.4c1.7-0.8,2.1-2.8,1.1-3.9c-0.7-0.7-0.3-1.8,0.3-2.1
					c0.7-0.3,2.1,0.4,2.7,1.1c2,2.5,1.3,4.8,0.4,6.6c-1.8,3.4-4.8,3.9-7.8,4.9c-5.8,1.8-10.3-1.1-12.1-4.7v0.1l-0.1-0.3v-0.1
					c-3.8-5.2-12.8-17.3-12.8-28.5c0-11,9.6-19.2,22.4-19.2c5.6,0,10.9,2,16.1,3.8c5.6,2.1,11,3.9,16.4,3.4v-11.3c0-1.1,0.8-2,2-2
					c1.1,0,2,0.8,2,2v29.6H190v-29.6c0-1.1,0.8-2,2-2c1.1,0,2,0.8,2,2v11.3c5.5,0.6,10.9-1.3,16.4-3.4c5.1-1.8,10.4-3.8,16.1-3.8
					C239.3,322.9,249,331.1,249,342.1z M182.6,416.6c25.1,0,38.1-4.9,38.1-7.2c0-2.1-13-7.2-38.1-7.2s-38.1,4.9-38.1,7.2
					C144.5,411.6,157.5,416.6,182.6,416.6z M171.7,334c-1.3,0.1-2.5,0.1-3.7,0c1.4,0.6,2.5,1.3,3.7,2.1V334z M243.1,351
					c1.1-3,2-6.1,2-8.9c0-8.7-7.9-15.2-18.5-15.2c-4.9,0-9.6,1.7-14.7,3.5c-2,0.7-4.1,1.4-6.1,2.1c0.6,0,1.1-0.1,1.7-0.1
					c6.8,0.1,13.3,2.7,16.5,6.1c7.3-0.1,12.8,2.1,16.2,6.5C241.7,346.9,242.5,349,243.1,351z M194,334v2.1c1.1-0.8,2.4-1.6,3.7-2.1
					C196.5,334.2,195.3,334.2,194,334z M237,347.4c-2.7-3.4-7.2-5.1-13.7-4.9c-0.7,0-1.3-0.3-1.7-0.8c-1.8-2.5-7.6-5.2-14.4-5.4
					c-3.2,0-9.5,0.6-13.1,5.1c0,0-0.1,0-0.1,0.1v5.2c1.6-1.6,3.5-3.1,5.9-4.4c0.7-0.3,2.5-1,4.1-1.1c1.4-0.1,2.5,0.3,2.5,0.7
					s-3.1,1.7-5.9,3.8c-2.1,1.6-3.8,3.7-4.9,5.1c1.7-0.4,2.8,0.4,2.8,1.4c1.1-1.1,3-2.1,5.8-2.3c0.4,0,1,0,1.4,0.1
					c0-0.3,0-0.6,0.1-0.8c1.1-5.5,6.8-8.2,9.3-8.9c1.8-0.4,3.4,0.7,3.4,0.7c2.1,1.6,5.4,5.2,5.4,9.9c0,0.6,0,1.3-0.1,2
					c0,0.3-0.1,0.4-0.3,0.7c0.4,0.1,0.8,0.3,1.3,0.4c3.7,1.7,4.8,4.2,4.9,6.1c0,0.3,0,0.6,0,0.7c0,2.5-1.4,4.7-2.8,6.1
					c0,0.1,0.1,0.1,0.1,0.3c0.1,0.4,0.1,0.7,0.1,1.1c0,1.3-0.6,2.5-1.7,3.4c0.3,0.1,0.4,0,0.7,0c2.1-0.7,4.9-2.5,6.3-7.5
					c2.5-8.5-7.2-15.2-6.2-16.6c0.4-0.7,1.8,0,1.8,0c4.8,2.4,9.5,7.3,8.7,14.5c0.6-1,1.3-2,2-3.1v-0.1
					C239.8,356.5,240,351.2,237,347.4z M160,332.5c-2.1-0.6-4.1-1.4-6.1-2.1c-5.1-1.8-9.7-3.5-14.7-3.5c-10.6,0-18.5,6.5-18.5,15.2
					c0,2.8,0.8,5.9,2,8.9c0.4-2,1.3-4.1,2.8-6.1c3.4-4.4,8.9-6.5,16.2-6.5c3.4-3.5,9.9-5.9,16.5-6.1
					C158.9,332.3,159.4,332.5,160,332.5z M186.2,382.8c0,2-1.6,3.5-3.5,3.5c-2,0-3.5-1.6-3.5-3.5s1.6-3.5,3.5-3.5
					C184.7,379.3,186.2,380.9,186.2,382.8z M171.7,341.5c0,0-0.1,0-0.1-0.1c-3.8-4.5-9.9-5.2-13.1-5.1c-6.8,0.1-12.4,2.8-14.2,5.4
					c-0.4,0.6-1,0.8-1.7,0.8c-6.5-0.3-11,1.4-13.7,4.9c-3,3.8-2.8,9-2.1,11.4v0.1c0.7,1.1,1.3,2.1,2,3.1c-0.6-7.2,3.9-12.1,8.7-14.5
					c0,0,1.4-0.7,1.8,0c1,1.4-8.6,8.2-6.2,16.6c1.6,5.2,4.5,7.1,6.6,7.6l0.4-0.1c-1-0.8-1.7-2.1-1.7-3.4c0-0.4,0-0.7,0.1-1.1
					c0-0.1,0.1-0.1,0.1-0.3c-1.4-1.4-2.8-3.5-2.8-6.1c0-0.3,0-0.4,0-0.7c0.1-1.8,1.3-4.4,4.9-6.1c0.4-0.1,0.8-0.3,1.3-0.4
					c-0.1-0.3-0.1-0.4-0.3-0.7c-0.1-0.7-0.1-1.3-0.1-2c0-4.7,3.2-8.3,5.4-9.9c0,0,1.6-1.1,3.4-0.7c2.5,0.7,8.2,3.4,9.3,8.9
					c0,0.3,0,0.6,0.1,0.8c0.4,0,0.8-0.1,1.4-0.1c3,0.1,4.7,1.1,5.8,2.3c0-1,1-1.7,2.8-1.4c-1.1-1.4-2.8-3.4-4.9-5.1
					c-2.7-2.1-5.9-3.2-5.9-3.8c0-0.4,1.1-0.8,2.5-0.7c1.6,0.1,3.4,0.8,4.1,1.1c2.4,1.1,4.4,2.8,5.9,4.4v-5.1H171.7z"/>
				<g>
					<path class="st0" d="M365.6,285.9H1.6v183.9c0,53.9,15.1,100.7,36.4,140.1c-5.6,2.3-11.4,7.1-16.8,17.6l-6.9,14.4l-4.9,10.7
						c-2,4.2-4.4,10.9-4.4,19.2c0,12,4.8,24.1,14.1,35.8c15.4,19.3,47.4,39.9,85.8,55c0,0,3.1,1.3,5.8,2.3c-2.7,2.3-6.5,5.5-6.5,5.5
						l-2.8,2.3c-0.1,0-2.4,2.1-2.4,2.1c-0.3,0.1-1,1-1,1c-4.1,4.5-5.9,9.6-5.9,16.8v33.3c0,13.8,15.1,22,40.5,22H234
						c25.4,0,40.5-8.3,40.5-22v-33.3c0-7.2-1.8-12.3-5.9-16.8c0.1,0.1-0.7-0.8-0.7-0.8c-1.3-1.1-2.1-1.7-2.7-2.1h0.1
						c0,0-6.2-5.4-9.5-8c2.7-1.1,5.8-2.3,5.8-2.3c38.4-15.2,70.5-35.7,85.8-55c9.5-11.8,14.1-23.8,14.1-35.8
						c0-8.5-2.4-15.1-4.4-19.3l-4.9-10.6l-6.8-14.2c-4.1-7.9-9.7-13.5-16.5-16.8c21.6-39.5,37-86.6,37-141v-184H365.6z M341.4,629.4
						l6.8,14.2l4.9,10.6c1.8,3.8,3.9,9.9,3.9,17.5c0,11-4.5,22.3-13.3,33.3c-15,18.8-46.3,38.8-84.1,53.7l-12.1,4.9l14.8,12.6
						c0.3,0.1,2.3,1.8,2.3,1.8l0.6,0.7c3.4,3.7,4.9,8,4.9,14V826c0,11.1-13.5,17.9-36.2,17.9H132.5c-22.7,0-36.2-6.6-36.2-17.9
						v-33.3c0-6.2,1.4-10.3,4.8-14l0.7-0.8l2.3-2.1l2.8-2.3l11.7-10l-12.1-4.9c-37.8-15-69.3-35-84.1-53.7
						c-8.7-11-13.3-22.3-13.3-33.3c0-7.6,2.1-13.7,3.9-17.5l4.9-10.7l6.8-14.2c4.9-9.7,10-14,15.1-15.8c0.7,1.1,1.3,2.4,2,3.7
						c-3,1.7-5.8,4.1-7.8,7.3c-2.3,3.8-3.5,8.3-3.5,13.1c0,4.4,1,9.2,3,14.1l3,7.2c0,0,11.4-16.5,15-21.6c0.4,1.3,0.8,2.8,0.8,2.8
						c1,3.4,3.8,6.2,7.9,7.8c0.7,0.3,1.4,0.4,2.1,0.6c2.7,3.7,5.4,7.3,8.2,10.9c-5.8,8.2-13.8,19.9-13.8,19.9l3.1,2.4
						c11.6,9.3,22.3,15.5,25.2,17.2c8.5,4.8,16.6,8.6,24.7,12.1c7.5,3.4,14.8,6.8,21.2,10.6c4.9,4.1,9.6,7.9,14,11.4
						c4.5,5.4,7.3,11.8,7.3,20.2v23.7c0,7.9-2.4,11.7-5.1,14.7l-6.2,6.9h84.8l-6.2-6.9c-2.7-3-5.1-6.8-5.1-14.7v-23.7
						c0-7.3,2.1-13.1,5.5-18.1c5.8-4.4,12.1-9.5,18.8-15.2c5.6-3.1,11.8-5.9,18.3-8.9c8-3.7,16.2-7.5,24.5-12.1
						c7.9-4.5,17.1-10.9,25.2-17.3l3.1-2.4c0,0-7.8-11.1-13.3-19.3c3-3.8,5.9-7.8,8.9-11.7c0.3-0.1,0.6-0.1,0.8-0.3
						c3.9-1.7,6.9-4.5,7.9-7.8c0,0,0.4-1.3,0.8-2.8c3.4,4.9,14.8,21.6,14.8,21.6l3-7.2c2-4.9,3-9.7,3-14.1c0-4.9-1.1-9.3-3.5-13.1
						c-1.8-3-4.2-5.2-7.1-6.9c0.6-1,1-2,1.6-3C332.8,617.4,337.8,622.3,341.4,629.4z M73.1,662.7c14.8,18.5,30.2,34.3,44.7,47.5
						c-2.1-1-4.2-2-6.5-3c-7.9-3.7-16.1-7.3-24.4-12c-3-1.7-13.3-7.8-24.7-16.9C63.2,676.8,68.5,669.4,73.1,662.7z M216.1,794.4
						c-7.6,0-58.4,0-66.2,0c3.1-3.4,6.2-8.2,6.2-17.5v-23.7c0-5.1-0.8-9.5-2.4-13.4c14.8,10.9,24.5,16.5,25,16.8l4.8,2.7l4.8-2.7
						c0.4-0.3,9.6-5.5,23.6-15.7c-1.3,3.7-2,7.8-2,12.3v23.7C209.9,786.2,213.2,790.9,216.1,794.4z M250.4,709.4
						c14-12.8,28.9-28.2,43.2-46l10.4,15c-7.9,6.3-16.9,12.6-24.7,16.9c-8,4.5-16.2,8.3-24.1,11.8
						C253.5,707.8,252,708.7,250.4,709.4z M291.2,659.7c-18.3,23-37.8,41.9-54.9,56.6l-19.9,16.1c-17.5,13.3-29.5,20.3-30,20.6
						c0,0-1.7,1-2.8,1.6c-1.1-0.6-2.7-1.6-2.7-1.6c-0.4-0.3-13.7-7.9-32.7-22.6L132.8,718c-17.6-15-38.1-34.7-57.3-58.8l-2.7-3.5
						c-1.7-2.3-3.5-4.5-5.2-6.8l-3-4.1c-5.8-8-11.4-16.6-16.6-25.5l-2.3-3.7c-0.6-1-1.1-2.1-1.7-3.1l-2.1-3.8
						c-21.1-39-36.2-85.4-36.2-138.8c0,0,0-175.6,0-179.7c4.1,0,351.6,0,355.7,0c0,4.1,0,179.7,0,179.7
						c0,53.7-15.2,100.4-36.7,139.5l-2.1,3.8c-0.4,0.8-1,1.7-1.4,2.5l-2.3,3.7c-1.8,3-3.5,5.9-5.4,8.9l-1,1.6
						c-3.2,5.1-6.6,10-10,14.7l-3.2,4.5c-1.8,2.5-3.7,4.9-5.5,7.2L291.2,659.7z"/>
				</g>
				<path class="st0" d="M77.5,124.6c-1.3,0.8-2,2.4-2.5,2.3c-1-0.1-2.7-3.1-2.5-3.7c0.1-0.6,8.5-3.7,9-3.4c0.6,0.4-0.7,3.4-0.7,3.4
					S78.7,123.6,77.5,124.6z"/>
				<path class="st0" d="M111.3,68l1-1.3c1.1,2.1,4.2,5.8,4.2,6.6c0,0.6-0.3,3.2-1,4.4c-0.3,0.6-1.1-0.1-1.1-0.1s-1.1-6.3-0.7-5.1
					C114,73.4,112.5,70,111.3,68z"/>
				<path class="st0" d="M175.8,33.3c0.1-1.7,0.3-4.8,0.3-4.8s3.8,6.9,3.9,7.9c0.3,1-2.4,1.7-2.8,2.3c-0.8,0.8-1.6,3-1.6,3l-1.4-1.6
					C174.2,40.1,175.6,35,175.8,33.3z"/>
				<path class="st0" d="M124.2,55.2c1.4,1,8,2.7,8.9,3c0.1,0.7,0.6,2.1-0.6,2.7c-1.7,1-2.8-2-4.9-3.2c-1.8-1.1-3.5-1.7-3.5-1.7
					s-0.8-0.4-0.8-0.8"/>
				<path class="st0" d="M246,50.4c-1.1,1.3-4.1,5.1-3.9,5.6c0.1,0.6,1.6-0.3,1.6-0.3s5.2-4.4,6.1-5.2C250.4,49.7,246,50.4,246,50.4
					z"/>
			</g>
		</g>
	</g>
	<g id="Text">
	</g>
</g>
</svg>
